<?xml version="1.0" encoding="iso-8859-1"?>
<!-- Generator: Adobe Illustrator 19.0.0, SVG Export Plug-In . SVG Version: 6.00 Build 0)  -->
<svg version="1.1" id="Layer_1" xmlns="http://www.w3.org/2000/svg" xmlns:xlink="http://www.w3.org/1999/xlink" x="0px" y="0px"
	 viewBox="0 0 502.4 502.4" style="enable-background:new 0 0 502.4 502.4;" xml:space="preserve">
<g>
	<path style="fill:#F7910B;" d="M493.6,314.4c0,104-95.2,188-242.4,188s-242.4-84-242.4-188s95.2-260,242.4-260
		S493.6,210.4,493.6,314.4z"/>
	<path style="fill:#F7910B;" d="M493.6,314.4c0,104-95.2,156-242.4,156s-242.4-52-242.4-156s95.2-276,242.4-276
		S493.6,210.4,493.6,314.4z"/>
</g>
<g>
	<path style="fill:#F9A908;" d="M251.2,38.4c147.2,0,242.4,172,242.4,276s-95.2,156-242.4,156"/>
	<path style="fill:#F9A908;" d="M493.6,314.4c0,104-95.2,156-242.4,156s-242.4-52-242.4-156s95.2-260,242.4-260
		S493.6,210.4,493.6,314.4z"/>
</g>
<path style="fill:#F9C55D;" d="M8.8,314.4c0-104,95.2-260,242.4-260"/>
<path style="fill:#F7910B;" d="M251.2,54.4c147.2,0,242.4,156,242.4,260s-95.2,188-242.4,188"/>
<path style="fill:#EA7103;" d="M251.2,54.4c147.2,0,242.4,156,242.4,260"/>
<g>
	<path style="fill:#19BCA4;" d="M233.6,130.4c-14.4,0.8-25.6,6.4-25.6,13.6l52-2.4C260,135.2,248,129.6,233.6,130.4z"/>
	<path style="fill:#19BCA4;" d="M388,130.4c-14.4-0.8-26.4,4.8-26.4,11.2l52,2.4C413.6,136.8,402.4,131.2,388,130.4z"/>
</g>
<g>
	<path style="fill:#109DA0;" d="M233.6,146.4c14.4-0.8,26.4,2.4,26.4-4.8l-52,2.4C208,151.2,219.2,147.2,233.6,146.4z"/>
	<path style="fill:#109DA0;" d="M387.2,146.4c14.4,0.8,26.4,4.8,26.4-2.4l-52-2.4C360.8,148.8,372.8,145.6,387.2,146.4z"/>
</g>
<path style="fill:#F9C55D;" d="M214.4,320c-34.4,0-62.4,8-62.4,17.6s28,5.6,62.4,5.6s62.4,4.8,62.4-5.6
	C276.8,328,249.6,320,214.4,320z"/>
<path style="fill:#F9A908;" d="M406.4,320c-34.4,0-62.4,8-62.4,17.6s28,5.6,62.4,5.6s62.4,4.8,62.4-5.6
	C468.8,328,440.8,320,406.4,320z"/>
<path style="fill:#1E4784;" d="M208,283.2c3.2,0.8,6.4,2.4,8.8,4.8c9.6,12.8,28,15.2,40.8,4.8c5.6-4.8,14.4-3.2,18.4,2.4
	c4.8,5.6,3.2,14.4-2.4,18.4c-24,18.4-59.2,14.4-77.6-9.6c-4.8-5.6-3.2-14.4,2.4-18.4C200.8,284,204.8,283.2,208,283.2z"/>
<path style="fill:#02243E;" d="M196,304.8c-4.8-5.6-3.2-14.4,2.4-18.4c3.2-2.4,6.4-3.2,9.6-2.4c3.2,0.8,6.4,2.4,8.8,4.8
	c9.6,12.8,28,15.2,40.8,4.8c5.6-4.8,14.4-3.2,18.4,2.4c4.8,5.6,3.2,14.4-2.4,18.4"/>
<path style="fill:#1E4784;" d="M412.8,283.2c-3.2,0.8-6.4,2.4-8.8,4.8c-9.6,12.8-28,15.2-40.8,4.8c-5.6-4.8-14.4-3.2-18.4,2.4
	c-4.8,5.6-3.2,14.4,2.4,18.4c24,18.4,59.2,14.4,77.6-9.6c4.8-5.6,3.2-14.4-2.4-18.4C420,284,416.8,283.2,412.8,283.2z"/>
<path style="fill:#02243E;" d="M425.6,304.8c4.8-5.6,3.2-14.4-2.4-18.4c-3.2-2.4-6.4-3.2-9.6-2.4c-3.2,0.8-6.4,2.4-8.8,4.8
	c-9.6,12.8-28,15.2-40.8,4.8c-5.6-4.8-14.4-3.2-18.4,2.4c-4.8,5.6-3.2,14.4,2.4,18.4"/>
<path style="fill:#F7910B;" d="M365.6,415.2c0,29.6-37.6,53.6-84.8,53.6c-46.4,0-84.8-24-84.8-53.6"/>
<path style="fill:#02243E;" d="M241.6,433.6c-34.4,0-62.4-28-62.4-63.2c0-4.8,4-8.8,8.8-8.8s8.8,4,8.8,8.8c0,24.8,20,44.8,45.6,44.8
	c4.8,0,8.8,4,8.8,8.8S246.4,433.6,241.6,433.6z"/>
<g>
	<circle style="fill:#F7910B;" cx="77.6" cy="289.6" r="4.8"/>
	<circle style="fill:#F7910B;" cx="41.6" cy="305.6" r="8.8"/>
	<circle style="fill:#F7910B;" cx="65.6" cy="273.6" r="1.6"/>
	<circle style="fill:#F7910B;" cx="102.4" cy="288" r="1.6"/>
</g>
<g>
	<circle style="fill:#F9A908;" cx="464" cy="312.8" r="6.4"/>
	<circle style="fill:#F9A908;" cx="436" cy="304" r="1.6"/>
	<circle style="fill:#F9A908;" cx="468.8" cy="360" r="2.4"/>
	<circle style="fill:#F9A908;" cx="438.4" cy="390.4" r="10.4"/>
	<circle style="fill:#F9A908;" cx="447.2" cy="327.2" r="4.8"/>
</g>
<g>
	<circle style="fill:#F7910B;" cx="69.6" cy="322.4" r="4"/>
	<circle style="fill:#F7910B;" cx="76" cy="255.2" r="3.2"/>
</g>
<g>
	<circle style="fill:#F9A908;" cx="33.6" cy="144.8" r="8.8"/>
	<circle style="fill:#F9A908;" cx="59.2" cy="116" r="4.8"/>
	<circle style="fill:#F9A908;" cx="468.8" cy="164" r="1.6"/>
	<circle style="fill:#F9A908;" cx="462.4" cy="140" r="6.4"/>
	<circle style="fill:#F9A908;" cx="483.2" cy="144.8" r="4"/>
	<circle style="fill:#F9A908;" cx="43.2" cy="168" r="4.8"/>
</g>
<circle style="fill:#FFFBE1;" cx="124.8" cy="116" r="116"/>
<g>
	<path style="fill:#EDE5BE;" d="M124.8,0c64,0,116,52,116,116s-52,116-116,116"/>
	<polygon style="fill:#EDE5BE;" points="240.8,242.4 139.2,199.2 139.2,139.2 196.8,139.2 	"/>
</g>
<path style="fill:#EFD27F;" d="M124.8,24.8c-50.4,0-91.2,40.8-91.2,91.2s40.8,92,92,92c50.4,0,92-40.8,92-92
	C216.8,65.6,176,24.8,124.8,24.8z M124.8,148.8c-17.6,0-32-14.4-32-32s14.4-32,32-32s32,14.4,32,32
	C157.6,134.4,143.2,148.8,124.8,148.8z"/>
<path style="fill:#E2A050;" d="M124.8,30.4c-47.2,0-85.6,38.4-85.6,85.6s38.4,85.6,85.6,85.6s85.6-38.4,85.6-85.6
	S172.8,30.4,124.8,30.4z M124.8,146.4c-16.8,0-30.4-13.6-30.4-30.4s13.6-30.4,30.4-30.4s30.4,13.6,30.4,30.4
	S141.6,146.4,124.8,146.4z"/>
<g>
	<path style="fill:#D38939;" d="M185.6,55.2l-39.2,39.2l0,0c11.2,12,11.2,30.4,0,42.4c-12,12-31.2,12-43.2,0L64,176
		c33.6,33.6,88,33.6,121.6,0S219.2,88.8,185.6,55.2z"/>
	<path style="fill:#D38939;" d="M104,137.6L104,137.6L104,137.6z"/>
</g>
<path style="fill:#EFD27F;" d="M84.8,40.8C88,44,83.2,53.6,73.6,63.2s-20,15.2-23.2,12S52,61.6,61.6,52.8
	C71.2,43.2,81.6,37.6,84.8,40.8z"/>
<ellipse transform="matrix(-0.7118 -0.7024 0.7024 -0.7118 74.6619 142.0792)" style="fill:#FFEFC7;" cx="66.48" cy="55.722" rx="4" ry="18.4"/>
<path style="fill:#F2498A;" d="M194.4,140.8c0.8-0.8,1.6-1.6,2.4-1.6c6.4-4,10.4-10.4,10.4-18.4c0-2.4-0.8-5.6-1.6-8
	c-1.6-9.6-7.2-17.6-15.2-22.4c0-0.8-0.8-1.6-0.8-1.6c0-1.6,0-2.4,0-4c0-13.6-8.8-24.8-20.8-28.8c-5.6-8.8-14.4-14.4-25.6-14.4
	c-4,0-8,0.8-11.2,2.4c-6.4-4.8-13.6-8.8-21.6-8.8C96.8,35.2,85.6,44,81.6,56c-10.4,2.4-19.2,10.4-22.4,20.8
	C50.4,81.6,44,92,44,103.2c0,7.2,2.4,12.8,6.4,18.4c0,1.6-0.8,3.2-0.8,4.8c0,6.4,1.6,12,4.8,16.8c-0.8,1.6-0.8,4-0.8,5.6
	c0,8.8,4.8,16.8,12,20.8c4.8,10.4,15.2,16.8,27.2,16.8c0.8,0,0.8,0,1.6,0c4,3.2,8.8,5.6,14.4,5.6c0.8,0,1.6,0,3.2,0
	c4.8,3.2,10.4,4.8,16,4.8c7.2,0,14.4-2.4,19.2-7.2h0.8c13.6,0,25.6-9.6,28.8-22.4c10.4-1.6,17.6-10.4,17.6-21.6
	C195.2,144,194.4,142.4,194.4,140.8z M124.8,148.8c-17.6,0-32-14.4-32-32s14.4-32,32-32s32,14.4,32,32
	C157.6,134.4,143.2,148.8,124.8,148.8z"/>
<path style="fill:#D61E69;" d="M119.2,181.6c0.8,0.8,1.6,0.8,2.4,1.6c4.8,4.8,11.2,6.4,18.4,4.8c2.4-0.8,4.8-1.6,6.4-3.2
	c8-3.2,14.4-10.4,16-18.4c0.8,0,0.8-0.8,1.6-0.8c1.6,0,2.4,0,4-0.8c12-2.4,20-12.8,20.8-24c6.4-6.4,9.6-16,7.2-25.6
	c-0.8-3.2-2.4-6.4-4-9.6c3.2-5.6,4.8-12.8,3.2-20c-2.4-12-12.8-20-24-20.8c-5.6-8-14.4-13.6-24-14.4c-6.4-7.2-16-10.4-26.4-8
	c-6.4,1.6-11.2,4.8-14.4,8.8c-1.6,0-3.2,0-4.8,0.8C96,53.6,92,56,88,60c-1.6,0-3.2,0-5.6,0.8c-8,1.6-13.6,8-16,15.2
	c-8,6.4-12,16.8-9.6,27.2c0,0.8,0,0.8,0,1.6c-2.4,4-3.2,8.8-1.6,13.6c0,0.8,0.8,1.6,0.8,2.4c-1.6,4.8-1.6,9.6-0.8,15.2
	c3.2,5.6,6.4,11.2,12,15.2v0.8c3.2,12,13.6,20.8,25.6,20.8c4,8.8,12.8,13.6,22.4,11.2C116.8,183.2,118.4,182.4,119.2,181.6z
	 M98.4,123.2c-4-16,5.6-31.2,21.6-35.2s31.2,5.6,35.2,21.6s-5.6,31.2-21.6,35.2S102.4,138.4,98.4,123.2z"/>
<g>
	
		<ellipse transform="matrix(-0.6224 -0.7827 0.7827 -0.6224 121.5615 148.6655)" style="fill:#FFA1C7;" cx="96.641" cy="45.01" rx="3.2" ry="9.6"/>
	
		<ellipse transform="matrix(-0.9148 -0.4038 0.4038 -0.9148 60.034 201.6608)" style="fill:#FFA1C7;" cx="51.281" cy="94.5" rx="2.4" ry="8"/>
	<path style="fill:#FFA1C7;" d="M58.4,147.2c0.8,0,2.4,2.4,3.2,4.8c0.8,3.2,0.8,5.6-0.8,6.4c-0.8,0-2.4-2.4-3.2-4.8
		C56.8,150.4,57.6,148,58.4,147.2z"/>
	
		<ellipse transform="matrix(-0.6249 0.7807 -0.7807 -0.6249 264.071 224.1836)" style="fill:#FFA1C7;" cx="78.18" cy="175.53" rx="3.2" ry="8.8"/>
	
		<ellipse transform="matrix(-0.9434 0.3318 -0.3318 -0.9434 135.7675 198.8278)" style="fill:#FFA1C7;" cx="50.911" cy="111.004" rx="1.6" ry="4.8"/>
</g>
<path style="fill:#FFEFC7;" d="M99.2,72c0,3.2-2.4,3.2-4,3.2l0,0c-1.6,0-4-1.6-4-3.2v-9.6c0-1.6,2.4-3.2,4-3.2l0,0
	c1.6,0,4,1.6,4,3.2V72z"/>
<g>
	<path style="fill:#A0D128;" d="M124.8,71.2c1.6,0.8,1.6,2.4,0.8,4l0,0c-0.8,0.8-2.4,1.6-4,0.8l-11.2-8c-0.8-0.8-1.6-2.4-0.8-4l0,0
		c0.8-0.8,2.4-1.6,4-0.8L124.8,71.2z"/>
	<path style="fill:#A0D128;" d="M84.8,124c1.6,0,2.4,1.6,2.4,3.2l0,0c0,1.6-1.6,2.4-3.2,2.4L70.4,128c-1.6,0-2.4-1.6-2.4-3.2l0,0
		c0-1.6,1.6-2.4,3.2-2.4L84.8,124z"/>
	<path style="fill:#A0D128;" d="M124.8,164.8c1.6,0,2.4,0.8,3.2,2.4l0,0c0,1.6-0.8,2.4-2.4,3.2l-14.4,0.8c-1.6,0-2.4-0.8-3.2-2.4
		l0,0c0-1.6,0.8-2.4,2.4-3.2L124.8,164.8z"/>
</g>
<g>
	<path style="fill:#FFEFC7;" d="M91.2,155.2c-1.6,0.8-3.2,0-3.2-1.6l0,0c-0.8-1.6,0-3.2,1.6-3.2l12.8-4.8c1.6-0.8,3.2,0,3.2,1.6l0,0
		c0.8,1.6,0,3.2-1.6,3.2L91.2,155.2z"/>
	<path style="fill:#FFEFC7;" d="M150.4,79.2c-1.6-0.8-1.6-2.4-0.8-3.2l0,0c0.8-1.6,2.4-1.6,3.2-0.8l12,6.4c1.6,0.8,1.6,2.4,0.8,3.2
		l0,0c-0.8,1.6-2.4,1.6-3.2,0.8L150.4,79.2z"/>
	<path style="fill:#FFEFC7;" d="M75.2,106.4c-0.8,0.8-2.4,0-3.2-0.8l0,0c-0.8-1.6-0.8-2.4,0.8-3.2l9.6-5.6c0.8-0.8,2.4,0,3.2,0.8
		l0,0c0.8,1.6,0.8,2.4-0.8,3.2L75.2,106.4z"/>
</g>
<g>
	<path style="fill:#91EDEA;" d="M142.4,68c0,0.8-0.8,2.4-2.4,2.4l0,0c-1.6,0-2.4-0.8-2.4-2.4V56.8c0-0.8,0.8-2.4,2.4-2.4l0,0
		c1.6,0,2.4,0.8,2.4,2.4V68z"/>
	<path style="fill:#91EDEA;" d="M83.2,148c0,0.8-0.8,2.4-2.4,2.4l0,0c-1.6,0-2.4-0.8-2.4-2.4v-11.2c0-0.8,0.8-2.4,2.4-2.4l0,0
		c1.6,0,2.4,0.8,2.4,2.4V148z"/>
	<path style="fill:#91EDEA;" d="M173.6,123.2c-0.8,0.8-2.4,0-3.2-0.8l0,0c-0.8-0.8-0.8-2.4,0-3.2l8.8-6.4c0.8-0.8,2.4,0,3.2,0.8l0,0
		c0.8,0.8,0.8,2.4,0,3.2L173.6,123.2z"/>
	<path style="fill:#91EDEA;" d="M85.6,79.2c0.8,0.8,0.8,2.4,0,3.2l0,0c-0.8,0.8-2.4,1.6-3.2,0.8l-8.8-6.4c-0.8-0.8-0.8-2.4,0-3.2
		l0,0c0.8-0.8,2.4-1.6,3.2-0.8L85.6,79.2z"/>
	<path style="fill:#91EDEA;" d="M147.2,149.6c-0.8,0-2.4-1.6-2.4-2.4l0,0c0-1.6,0.8-2.4,2.4-2.4h11.2c0.8,0,2.4,1.6,2.4,2.4l0,0
		c0,1.6-0.8,2.4-2.4,2.4H147.2z"/>
</g>
<path style="fill:#A0D128;" d="M166.4,104.8c-0.8,0-2.4-1.6-2.4-2.4l0,0c0-1.6,0.8-2.4,2.4-2.4h11.2c0.8,0,2.4,1.6,2.4,2.4l0,0
	c0,1.6-0.8,2.4-2.4,2.4H166.4z"/>
<g>
	<path style="fill:#FFEFC7;" d="M164,137.6c-0.8-0.8-0.8-2.4,0-3.2l0,0c0.8-0.8,2.4-1.6,3.2-0.8l8.8,6.4c0.8,0.8,0.8,2.4,0,3.2l0,0
		c-0.8,1.6-2.4,1.6-3.2,0.8L164,137.6z"/>
	<path style="fill:#FFEFC7;" d="M138.4,158.4c-0.8-0.8,0-2.4,0.8-3.2l0,0c1.6-0.8,2.4-0.8,3.2,0.8l5.6,9.6c0.8,0.8,0,2.4-1.6,3.2
		l0,0c-1.6,0.8-2.4,0.8-3.2-0.8L138.4,158.4z"/>
</g>
<path style="fill:#99004D;" d="M98.4,123.2c-4-16,5.6-31.2,21.6-35.2s31.2,5.6,35.2,21.6c0,0.8,0,0.8,0,1.6c0-2.4,0-4-0.8-6.4
	c-4.8-18.4-23.2-30.4-41.6-25.6s-30.4,23.2-25.6,41.6s23.2,30.4,41.6,25.6c1.6,0,2.4-0.8,4-1.6C117.6,148,101.6,138.4,98.4,123.2z"
	/>
<g>
	<circle style="fill:#EFD27F;" cx="71.2" cy="88" r="2.4"/>
	<circle style="fill:#EFD27F;" cx="163.2" cy="114.4" r="2.4"/>
</g>
<g>
	<path style="fill:#FFCE00;" d="M68,114.4c0,1.6-0.8,2.4-2.4,2.4s-2.4-0.8-2.4-2.4s0.8-2.4,2.4-2.4C66.4,112,68,112.8,68,114.4z"/>
	<circle style="fill:#FFCE00;" cx="172.8" cy="152" r="2.4"/>
	<path style="fill:#FFCE00;" d="M92,140c0,0.8-0.8,1.6-1.6,1.6c-0.8,0-1.6-0.8-1.6-1.6s0.8-1.6,1.6-1.6C92,138.4,92,139.2,92,140z"
		/>
	<path style="fill:#FFCE00;" d="M182.4,127.2c0,0.8-0.8,1.6-1.6,1.6s-1.6-0.8-1.6-1.6s0.8-1.6,1.6-1.6
		C181.6,126.4,182.4,126.4,182.4,127.2z"/>
</g>
<g>
	<path style="fill:#91EDEA;" d="M81.6,114.4c0,0.8-0.8,1.6-1.6,1.6c-0.8,0-1.6-0.8-1.6-1.6c0-0.8,0.8-1.6,1.6-1.6
		S81.6,113.6,81.6,114.4z"/>
	<path style="fill:#91EDEA;" d="M158.4,92c0,0.8-0.8,1.6-1.6,1.6s-1.6-0.8-1.6-1.6s0.8-1.6,1.6-1.6C157.6,90.4,158.4,91.2,158.4,92z
		"/>
</g>
<circle style="fill:#FFEFC7;" cx="70.4" cy="137.6" r="1.6"/>
<g>
	<circle style="fill:#FFCE00;" cx="155.2" cy="65.6" r="2.4"/>
	<circle style="fill:#FFCE00;" cx="102.4" cy="159.2" r="2.4"/>
</g>
<circle style="fill:#91EDEA;" cx="124.8" cy="155.2" r="2.4"/>
<path style="fill:#FFCE00;" d="M160.8,158.4c0,1.6-0.8,2.4-2.4,2.4c-1.6,0-2.4-0.8-2.4-2.4s0.8-2.4,2.4-2.4S160.8,156.8,160.8,158.4
	z"/>
<g>
	<circle style="fill:#EFD27F;" cx="126.4" cy="55.2" r="2.4"/>
	<circle style="fill:#EFD27F;" cx="175.2" cy="90.4" r="2.4"/>
</g>
<g>
</g>
<g>
</g>
<g>
</g>
<g>
</g>
<g>
</g>
<g>
</g>
<g>
</g>
<g>
</g>
<g>
</g>
<g>
</g>
<g>
</g>
<g>
</g>
<g>
</g>
<g>
</g>
<g>
</g>
</svg>
