<svg id="b3bc235b-491d-4205-b227-af9979e8734f" data-name="Calque 1" xmlns="http://www.w3.org/2000/svg" viewBox="0 0 444.96 129.76"><title>keskonmang-horizontal</title><g id="bd212d09-52e4-4c3b-a7d5-f9c9936d0306" data-name="Page-1"><g id="a994dd5b-39ee-4e55-a4ec-9365917a5ef4" data-name="HP-rouge-0-resultat"><g id="be2a223d-c78f-4ffc-810a-e5f7555c906f" data-name="Group-89"><polygon id="a1b21cb0-fc97-4d84-a410-1bfb04bd63e5" data-name="Fill-2" points="61.84 51.32 75.06 34 88.45 34 71.91 53.89 90 76 75.95 76 61.84 57.78 61.84 76 51 76 51 34 61.84 34 61.84 51.32" style="fill:#ffc830;fill-rule:evenodd"/><g id="a1367a59-1ede-4fea-8446-63eb0acee67e" data-name="Group-88"><path id="b52c2d5d-1e3d-40cb-9641-ff23c8d9734d" data-name="Fill-3" d="M110.23,68.81a4.52,4.52,0,0,0-1.55-2.54,4.78,4.78,0,0,0-5.69,0,4.11,4.11,0,0,0-1.4,2.58Zm-8.85,4.37Q101.38,78,106,78a4.09,4.09,0,0,0,3.71-2H117q-2.22,7.32-11.06,7.32a14.6,14.6,0,0,1-5-.81,11.07,11.07,0,0,1-3.86-2.31,10.39,10.39,0,0,1-2.49-3.58A12,12,0,0,1,93.74,72a13.28,13.28,0,0,1,.83-4.8A10.14,10.14,0,0,1,97,63.57a10.55,10.55,0,0,1,3.74-2.31,14.2,14.2,0,0,1,5-.81,13.91,13.91,0,0,1,4.88.81,9.78,9.78,0,0,1,3.67,2.35,10.22,10.22,0,0,1,2.3,3.76,14.9,14.9,0,0,1,.79,5v.79Z" style="fill:#ffc830;fill-rule:evenodd"/><path id="be29a5b0-7c16-4734-9eee-1c758e8e455e" data-name="Fill-5" d="M137.79,59.07A9,9,0,0,0,133.66,58a3.09,3.09,0,0,0-1.71.42,1.28,1.28,0,0,0-.65,1.14,1.53,1.53,0,0,0,.1.61,1.12,1.12,0,0,0,.47.44,4.07,4.07,0,0,0,1,.38l1.83.42a8.85,8.85,0,0,1,4.73,2.24A5.73,5.73,0,0,1,141,67.78a7.42,7.42,0,0,1-.76,3.4,7.21,7.21,0,0,1-2.11,2.54,10,10,0,0,1-3.25,1.6,14.4,14.4,0,0,1-4.17.57,17,17,0,0,1-8.65-2.48L124.88,68A10.9,10.9,0,0,0,131,70.21a3,3,0,0,0,1.73-.46,1.38,1.38,0,0,0,.67-1.18,1.94,1.94,0,0,0-.1-.69,1.1,1.1,0,0,0-.45-.5,3.11,3.11,0,0,0-1-.42c-.43-.13-1-.26-1.71-.4a9.79,9.79,0,0,1-5-2.13,5.25,5.25,0,0,1-1.42-3.89,7.59,7.59,0,0,1,.68-3.25,6.74,6.74,0,0,1,1.94-2.46,9,9,0,0,1,3.06-1.56,13.73,13.73,0,0,1,4-.54,18.23,18.23,0,0,1,7,1.38Z" style="fill:#ffc830;fill-rule:evenodd"/><polygon id="ea9e10bb-4437-4659-bc6b-c9bdc46d5602" data-name="Fill-7" points="153.7 48.72 153.7 69.6 161.63 61.9 171.98 61.9 161.26 71.76 172.61 83.24 162.01 83.24 153.7 74.55 153.7 83.24 146.15 83.24 146.15 48.72 153.7 48.72" style="fill:#ffc830;fill-rule:evenodd"/><path id="a99ed94a-7b4c-4437-a2d0-620ca1d9367b" data-name="Fill-9" d="M185.64,82.93a4.84,4.84,0,0,0,.39,2,5.35,5.35,0,0,0,1.05,1.56,4.46,4.46,0,0,0,1.54,1,4.94,4.94,0,0,0,3.8,0,4.6,4.6,0,0,0,1.55-1,5.32,5.32,0,0,0,1-1.56,4.76,4.76,0,0,0,.4-1.93,4.64,4.64,0,0,0-.4-1.89,5.32,5.32,0,0,0-1-1.56,4.6,4.6,0,0,0-1.55-1,4.94,4.94,0,0,0-3.8,0,4.46,4.46,0,0,0-1.54,1A5.38,5.38,0,0,0,186,81.06a4.51,4.51,0,0,0-.39,1.87m-8-.08a10.17,10.17,0,0,1,1-4.43,10.67,10.67,0,0,1,2.67-3.58,12.61,12.61,0,0,1,4.07-2.39,14.54,14.54,0,0,1,5.15-.88,15.19,15.19,0,0,1,5.12.85,12.65,12.65,0,0,1,4.09,2.38,10.59,10.59,0,0,1,2.69,3.62,11,11,0,0,1,1,4.63,10.86,10.86,0,0,1-1,4.64,11.09,11.09,0,0,1-2.69,3.62,12.15,12.15,0,0,1-4.12,2.35,15.6,15.6,0,0,1-5.19.83,15,15,0,0,1-5.1-.83,11.6,11.6,0,0,1-4-2.37,10.84,10.84,0,0,1-2.65-3.68,11.38,11.38,0,0,1-1-4.76" style="fill:#ffc830;fill-rule:evenodd"/><path id="b78b7fc4-c10c-451c-84f8-54ab1133e814" data-name="Fill-11" d="M211.78,62h7.55v2.7a8.32,8.32,0,0,1,3.13-2.52,9.86,9.86,0,0,1,3.72-.64,9.23,9.23,0,0,1,3.86.73,7.72,7.72,0,0,1,2.74,2.06A6,6,0,0,1,234,66.72a12.69,12.69,0,0,1,.33,3V83.32h-7.55V72.54a11.84,11.84,0,0,0-.23-2.56,3.24,3.24,0,0,0-.82-1.56,2.89,2.89,0,0,0-1.12-.7,4.23,4.23,0,0,0-1.34-.21,3.74,3.74,0,0,0-2.94,1.14,4.72,4.72,0,0,0-1,3.27v11.4h-7.55Z" style="fill:#ffc830;fill-rule:evenodd"/><path id="b9a3cea1-3678-4f07-9d15-c19ad3b95eb8" data-name="Fill-13" d="M240.84,39.36h13v4.52a16.85,16.85,0,0,1,11.95-5.09,13.9,13.9,0,0,1,12.53,6.89,14,14,0,0,1,12.53-7,15.47,15.47,0,0,1,4.9.76,10.08,10.08,0,0,1,4,2.37A11.19,11.19,0,0,1,302.37,46a17.79,17.79,0,0,1,1,6.25V76.17h-13V58a22.15,22.15,0,0,0-.39-4.59,7.22,7.22,0,0,0-1.16-2.8A3.81,3.81,0,0,0,287,49.26a6.36,6.36,0,0,0-2.16-.36q-6.27,0-6.26,9.12V76.17h-13V58a24.62,24.62,0,0,0-.36-4.63,8.68,8.68,0,0,0-1-2.91A3.56,3.56,0,0,0,262.38,49a7.47,7.47,0,0,0-2.53-.39,7.24,7.24,0,0,0-2.3.36,4.09,4.09,0,0,0-1.91,1.39,7.71,7.71,0,0,0-1.29,2.88,19.42,19.42,0,0,0-.47,4.77V76.17h-13Z" style="fill:#ffc830;fill-rule:evenodd"/><path id="e84ee02d-7a54-4af5-b969-ef1afea71b03" data-name="Fill-15" d="M320,72.49a4.92,4.92,0,0,0,.38,1.93,5.07,5.07,0,0,0,1,1.57,4.8,4.8,0,0,0,1.55,1,5.12,5.12,0,0,0,1.94.37,5.06,5.06,0,0,0,1.9-.37,4.76,4.76,0,0,0,1.54-1,5.68,5.68,0,0,0,1.05-1.54,4.59,4.59,0,0,0,.39-1.88,4.7,4.7,0,0,0-.39-1.89,5.48,5.48,0,0,0-1.05-1.56,4.6,4.6,0,0,0-1.54-1,4.87,4.87,0,0,0-1.9-.37,4.93,4.93,0,0,0-1.94.37,4.65,4.65,0,0,0-1.55,1,5.07,5.07,0,0,0-1,1.52,4.57,4.57,0,0,0-.38,1.85Zm9.52-10.61h7.6V83.22h-7.6V80.85a7.92,7.92,0,0,1-6.55,3,10.82,10.82,0,0,1-4.3-.85,10.43,10.43,0,0,1-3.43-2.4A11,11,0,0,1,313,77a12.42,12.42,0,0,1-.81-4.54,12,12,0,0,1,.79-4.35,11.2,11.2,0,0,1,2.21-3.6,10.69,10.69,0,0,1,3.38-2.43,10.46,10.46,0,0,1,4.34-.89A8.75,8.75,0,0,1,329.51,64Z" style="fill:#ffc830;fill-rule:evenodd"/><path id="f1ac3d4f-d5be-4059-bcaf-d124a363f2c0" data-name="Fill-17" d="M342.66,54.53h7.56v2.71a8.24,8.24,0,0,1,3.13-2.52,9.86,9.86,0,0,1,3.72-.64,9.4,9.4,0,0,1,3.86.72,7.83,7.83,0,0,1,2.73,2.06,5.9,5.9,0,0,1,1.25,2.42,12.1,12.1,0,0,1,.34,3V75.87h-7.56V65.1a11.18,11.18,0,0,0-.23-2.56,3.15,3.15,0,0,0-.81-1.56,3,3,0,0,0-1.13-.71,4.46,4.46,0,0,0-1.33-.2,3.76,3.76,0,0,0-2.95,1.14,4.75,4.75,0,0,0-1,3.27V75.87h-7.56Z" style="fill:#ffc830;fill-rule:evenodd"/><path id="e04c3093-1793-4fab-a267-8cf524bab862" data-name="Fill-19" d="M379.08,74.13a6,6,0,0,0,.45,2.32,6.06,6.06,0,0,0,1.22,1.86,5.52,5.52,0,0,0,1.85,1.24,5.92,5.92,0,0,0,2.32.45,5.82,5.82,0,0,0,2.27-.45A5.38,5.38,0,0,0,389,78.31a6.14,6.14,0,0,0,1.25-1.86,5.51,5.51,0,0,0,.48-2.27,5.35,5.35,0,0,0-.48-2.28A6.05,6.05,0,0,0,389,70.06a5.77,5.77,0,0,0-4.09-1.69,5.34,5.34,0,0,0-2.25.47,6.48,6.48,0,0,0-1.84,1.24,5.85,5.85,0,0,0-1.27,1.82,5.26,5.26,0,0,0-.48,2.23Zm20.26-12.62V85.27a27.35,27.35,0,0,1-.25,3.83,16.78,16.78,0,0,1-.7,3,9.26,9.26,0,0,1-1.87,3.06,12.77,12.77,0,0,1-3.07,2.46,16.19,16.19,0,0,1-4.07,1.64,20.43,20.43,0,0,1-10.4-.15A14.65,14.65,0,0,1,374.62,97,12.14,12.14,0,0,1,371.55,94a10.25,10.25,0,0,1-1.6-3.86h10.18q.94,2.53,4.29,2.54A5.77,5.77,0,0,0,388.79,91a6.17,6.17,0,0,0,1.52-4.43V84.18a15.33,15.33,0,0,1-1.92,1.56,10.43,10.43,0,0,1-1.87,1,8.5,8.5,0,0,1-2,.57,13.59,13.59,0,0,1-2.3.18,13.1,13.1,0,0,1-5-1,11.56,11.56,0,0,1-6.56-6.68,14.26,14.26,0,0,1-.93-5.25,14.66,14.66,0,0,1,1-5.44,14,14,0,0,1,2.72-4.38,12.51,12.51,0,0,1,4.09-2.93,12.29,12.29,0,0,1,5.16-1.07,10,10,0,0,1,7.64,3.38V61.51Z" style="fill:#ffc830;fill-rule:evenodd"/><polygon id="b42aa07b-56f0-4aa5-a0f0-abd57e41b6b5" data-name="Fill-21" points="409.24 36.57 416.38 36.57 408.7 50.38 403.86 50.38 409.24 36.57" style="fill:#ffc830;fill-rule:evenodd"/><g id="f4c1c5b4-4408-4abf-ab7f-1721c428952a" data-name="Group-9" style="opacity:0.2020554393529892"><path id="f1d8e21e-de7a-4623-b6d9-4f188dd09de9" data-name="Fill-23" d="M362.73,113.85,358.42,110v-.06a1.6,1.6,0,0,1,.4-1.26.91.91,0,0,1,.65-.23.86.86,0,0,1,.59.27l0,0a1.82,1.82,0,0,0,2.9-2.19,2.39,2.39,0,0,0-1.21-2.91,2.35,2.35,0,0,0-1.82-.11l-.07,0a2.12,2.12,0,0,0-2.61-1.76,3.24,3.24,0,0,0-.24-1.44,3.34,3.34,0,0,0-1.45-1.65,2.51,2.51,0,0,0-.1-1.53,2.55,2.55,0,0,0-3.3-1.44h0a2.72,2.72,0,0,0-4.9-1.64,4.77,4.77,0,0,0-4.64-.81.46.46,0,1,0,.32.87,3.81,3.81,0,0,1,4,.88,1.85,1.85,0,0,0,.27.19.45.45,0,0,0,.61-.23,1.79,1.79,0,0,1,3.28,1.43l-.26.56s0,.05,0,.08a.46.46,0,0,0,.23.61.48.48,0,0,0,.62-.23l0-.07a1.62,1.62,0,0,1,.86-.79,1.62,1.62,0,0,1,2.08,2.15.47.47,0,0,0,.16.57l0,0,.08,0a2.39,2.39,0,0,1,1.3,1.31,2.42,2.42,0,0,1,0,1.85l0,0a.47.47,0,0,0,.21.55.47.47,0,0,0,.58-.09,1.17,1.17,0,0,1,1.66-.07,1.14,1.14,0,0,1,.37.81,1.1,1.1,0,0,1-.08.48,2.88,2.88,0,0,0-.3.47.46.46,0,0,0,.75.53h0a2.56,2.56,0,0,0,.33-.48,1.46,1.46,0,0,1,.58-.36,1.43,1.43,0,0,1,1.11.06,1.47,1.47,0,0,1,.67,1.95.46.46,0,0,0,0,.44l.06.07a.9.9,0,0,1-1.32,1.22l0,0a1.81,1.81,0,0,0-2.57-.13,2.39,2.39,0,0,0-.66,1.21l-.51-.46a2.73,2.73,0,0,1-.55-1.49,1.84,1.84,0,0,0,.57.09h0a1.76,1.76,0,0,0,1.24-.55.46.46,0,0,0,0-.65.47.47,0,0,0-.66,0,.84.84,0,0,1-.59.27.88.88,0,0,1-.46-.13,2.75,2.75,0,0,1,.92-1.33.47.47,0,0,0,.08-.65.48.48,0,0,0-.66-.08,3.63,3.63,0,0,0-1.37,2.43,3.88,3.88,0,0,0,0,.76l-2.48-2.25h0a2.76,2.76,0,0,1-.57-2,2.71,2.71,0,0,1,1-1.81.46.46,0,0,0-.57-.73,4,4,0,0,0-.75.78,1.2,1.2,0,0,1,.11-1.53.45.45,0,0,0,0-.65.46.46,0,0,0-.65,0,2.12,2.12,0,0,0,.07,3l0,0a4.8,4.8,0,0,0-.18.77,4,4,0,0,0,0,.77l-3.3-3a2.71,2.71,0,0,1,.47-3.8.46.46,0,0,0-.57-.73,3.65,3.65,0,0,0-1.39,3.19l-2.48-2.24a.46.46,0,0,0-.65.65l2,2.17a3.86,3.86,0,0,0-.76,0,3.64,3.64,0,0,0-2.44,1.38.47.47,0,0,0,.08.65.52.52,0,0,0,.29.09.46.46,0,0,0,.36-.17,2.74,2.74,0,0,1,3.84-.47h0l3,3.26a3.86,3.86,0,0,0-.76,0,4.3,4.3,0,0,0-.73.16h0a2.14,2.14,0,0,0-3,.07.45.45,0,0,0,0,.65.44.44,0,0,0,.32.13.47.47,0,0,0,.33-.14,1.22,1.22,0,0,1,.85-.38,1.24,1.24,0,0,1,.6.15,3.46,3.46,0,0,0-.79.74.46.46,0,0,0,.08.65.45.45,0,0,0,.29.1.45.45,0,0,0,.36-.18,2.73,2.73,0,0,1,3.83-.46h0l2.27,2.47a3.66,3.66,0,0,0-3.19,1.38.46.46,0,0,0,.08.65.42.42,0,0,0,.28.1.46.46,0,0,0,.37-.18,2.72,2.72,0,0,1,1.37-.93.83.83,0,0,1,.21.54.78.78,0,0,1-.23.6.46.46,0,0,0,0,.66.47.47,0,0,0,.32.12.43.43,0,0,0,.33-.14,1.74,1.74,0,0,0,.49-1.26,1.68,1.68,0,0,0-.13-.62,2.71,2.71,0,0,1,1.44.56l.69.75a2.49,2.49,0,0,0-1.19.64,1.82,1.82,0,0,0,.13,2.56l0,0a.9.9,0,0,1-1.22,1.31.18.18,0,0,0-.07-.05.45.45,0,0,0-.45,0,1.43,1.43,0,0,1-1.11.07,1.41,1.41,0,0,1-.84-.73,1.47,1.47,0,0,1,.3-1.69,1.58,1.58,0,0,0,.48-.33h0a.46.46,0,0,0-.53-.75,2.09,2.09,0,0,0-.47.3,1.1,1.1,0,0,1-.48.08,1.17,1.17,0,0,1-.82-.38,1.16,1.16,0,0,1,.07-1.65.46.46,0,0,0-.46-.78h0a2.42,2.42,0,0,1-3.16-1.28l0-.09,0,0a.46.46,0,0,0-.57-.15,1.61,1.61,0,0,1-1.24,0,1.61,1.61,0,0,1-.12-3l.07,0a.47.47,0,0,0-.38-.85l-.09,0-.56.26a1.77,1.77,0,0,1-2.35-.92,1.78,1.78,0,0,1,.91-2.35.45.45,0,0,0,.24-.6.4.4,0,0,0-.1-.15.51.51,0,0,0-.09-.13,3.79,3.79,0,0,1-.87-4,.46.46,0,0,0-.27-.59.47.47,0,0,0-.6.27,4.7,4.7,0,0,0,.8,4.67,2.7,2.7,0,0,0-.87,3.26,2.65,2.65,0,0,0,1.5,1.44,2.7,2.7,0,0,0,1,.19v0a2.47,2.47,0,0,0,0,1.94,2.53,2.53,0,0,0,1.41,1.35,2.58,2.58,0,0,0,1.53.1,3.35,3.35,0,0,0,3.1,1.68,1.54,1.54,0,0,0-.06.43,2.07,2.07,0,0,0,.55,1.51,2.15,2.15,0,0,0,1.27.66,2.39,2.39,0,0,0,3,3.09,1.82,1.82,0,0,0,2.2-2.88l0,0a.9.9,0,0,1,0-1.24,2.2,2.2,0,0,1,1.24-.45l1.21,1.31a.46.46,0,0,0,.65,0,.45.45,0,0,0,0-.65l-7.25-7.89,5.26,4.75.07.06,5.69,5.14a.69.69,0,0,1-.46,1.2h0a.69.69,0,0,1-.51-.23l-.68-.74a.46.46,0,0,0-.68.63l.68.74a1.64,1.64,0,0,0,1.19.52h0a1.59,1.59,0,0,0,1.19-.53,1.61,1.61,0,0,0-.11-2.28" style="fill-rule:evenodd"/><g id="ff02da01-cc67-40a6-9735-b3c09fe67201" data-name="Group-33"><path id="fc1c2b56-3034-430d-b1b2-3130933f1c30" data-name="Fill-25" d="M328.07,22.74a3.1,3.1,0,0,1-1.36.71.47.47,0,0,0-.38.42.49.49,0,0,0,.29.49,3.36,3.36,0,0,1,1.7,1.79,3.57,3.57,0,0,0-1.69-.23,1.79,1.79,0,0,1-1.4-.28.49.49,0,0,0-.56-.09.46.46,0,0,0-.25.51,1.25,1.25,0,1,1-2.08,0,.46.46,0,0,0-.25-.51.47.47,0,0,0-.56.09,1.81,1.81,0,0,1-1.4.28,3.57,3.57,0,0,0-1.69.23,3.29,3.29,0,0,1,1.7-1.79.49.49,0,0,0,.29-.49.48.48,0,0,0-.38-.42,3,3,0,0,1-1.36-.71,6.3,6.3,0,0,0-1-.7,6.16,6.16,0,0,1,4.24,0h0v.7a.49.49,0,0,0,1,0v-.93a4.4,4.4,0,0,1,1.59-3.39l1.32-1.08a.52.52,0,0,1,.68,0,.52.52,0,0,1,0,.79l-.51.41a5.34,5.34,0,0,0-2,4.18.48.48,0,0,0,1,0A4.4,4.4,0,0,1,325,22h0a4.18,4.18,0,0,1,2.27-.36,6,6,0,0,1,1.81.4,6.05,6.05,0,0,0-1,.69m5.44,1.84-.06-.07a8.82,8.82,0,0,0-2.85-2.11.48.48,0,0,0,.12-.26.49.49,0,0,0-.23-.47,7.07,7.07,0,0,0-5.13-.83,4.43,4.43,0,0,1,1.21-1.52l.5-.4a1.48,1.48,0,0,0,.06-2.27,1.5,1.5,0,0,0-1.94,0l-1.32,1.08A5.33,5.33,0,0,0,322,21.08a6.63,6.63,0,0,0-5.72.59.48.48,0,0,0-.1.73,7.88,7.88,0,0,0-1.26.72.48.48,0,0,0-.13.67.52.52,0,0,0,.4.21.49.49,0,0,0,.28-.09,7.79,7.79,0,0,1,1.89-.95c.29.18.52.36.75.53a4.86,4.86,0,0,0,.76.53,4.91,4.91,0,0,0-1.67,3,.5.5,0,0,0,.23.47.49.49,0,0,0,.53,0,3.44,3.44,0,0,1,2.06-.58,3.17,3.17,0,0,0,1.44-.12A3.64,3.64,0,0,0,323.11,29a.53.53,0,0,0,.27.08.56.56,0,0,0,.27-.08,3.68,3.68,0,0,0,1.67-2.25,3.17,3.17,0,0,0,1.44.12,3.52,3.52,0,0,1,2.06.58.49.49,0,0,0,.53,0,.5.5,0,0,0,.23-.47,5,5,0,0,0-1.67-3,5.39,5.39,0,0,0,.76-.53,6.08,6.08,0,0,1,.75-.53,7.85,7.85,0,0,1,3.3,2.19l.07.07a7.83,7.83,0,0,1,2,5.22,7.75,7.75,0,0,1-3,6.12l-.07.06a12.09,12.09,0,0,1-16.73,0l-.07-.06a7.83,7.83,0,0,1-2.13-9.64.49.49,0,0,0-.21-.65.48.48,0,0,0-.65.22,8.75,8.75,0,0,0-.06,7.77,8.88,8.88,0,0,0,2.45,3.06l.07,0a16.87,16.87,0,0,0,8.92,3.57h.09a16.83,16.83,0,0,0,8.92-3.56l.08-.06a8.88,8.88,0,0,0,2.45-3.06,8.76,8.76,0,0,0-1.36-9.68" style="fill-rule:evenodd"/><path id="ab484bed-ffcf-445c-85ef-2647f3d50a1d" data-name="Fill-27" d="M314,24.47a.48.48,0,0,0-.68,0l-.06.06a.5.5,0,0,0,0,.69.49.49,0,0,0,.32.12.48.48,0,0,0,.36-.16l.06-.07a.48.48,0,0,0,0-.68" style="fill-rule:evenodd"/><path id="bf67c010-463f-4793-8388-eb77646a2d31" data-name="Fill-29" d="M331.29,35.13a.49.49,0,0,0-.68-.07l-.07.06a14,14,0,0,1-5.27,2.59.47.47,0,0,0-.35.58.48.48,0,0,0,.46.37l.12,0a14.67,14.67,0,0,0,5.64-2.77l.07-.06a.48.48,0,0,0,.08-.68" style="fill-rule:evenodd"/><path id="b2f75aa0-20f0-4190-9506-883e934ac70d" data-name="Fill-31" d="M323.72,38.5a.48.48,0,0,0-.52-.44h0a.48.48,0,0,0,0,1h.09a.47.47,0,0,0,.43-.52" style="fill-rule:evenodd"/></g><g id="bcb8374c-ffd9-4ec1-b3ff-8fb486bb5d43" data-name="Group-40"><path id="f42e8734-1ae1-41ef-a179-7a8975e637a4" data-name="Fill-34" d="M217.8,32.92a.52.52,0,0,0-.72.09h0a.51.51,0,0,0,.1.72.5.5,0,0,0,.31.1.53.53,0,0,0,.41-.2h0a.51.51,0,0,0-.09-.72" style="fill-rule:evenodd"/><path id="e46db032-d556-4e23-b9a1-9defce705ab3" data-name="Fill-36" d="M222.41,25.09a.52.52,0,0,0-.73,0h0A18.46,18.46,0,0,0,219,29.5c-.4.81-.78,1.58-1.15,2.25a.52.52,0,0,0,.19.7.57.57,0,0,0,.25.06.5.5,0,0,0,.45-.26c.4-.7.78-1.48,1.19-2.3a18.39,18.39,0,0,1,2.42-4.11l0,0a.52.52,0,0,0,0-.73" style="fill-rule:evenodd"/><path id="bfe5b100-3b5c-40f5-8e95-98e229bb393c" data-name="Fill-38" d="M229.78,21.45l-.2-.2,0,0a3.24,3.24,0,0,1,2.83-1.64,3.68,3.68,0,0,1,1,.14v.33a3.23,3.23,0,0,0-.69-.07,3.63,3.63,0,0,0-2.92,1.47m.06,5.24-.77-2.51a.51.51,0,0,0-.63-.35l-2.65.74.4-2.43a.52.52,0,0,0-.12-.41.5.5,0,0,0-.39-.18H223a5.06,5.06,0,0,1,2.77-.86A4.4,4.4,0,0,1,228.86,22a4.45,4.45,0,0,1,1,4.71m-1,1.78a28.48,28.48,0,0,1-10.69,8.29,18.19,18.19,0,0,1-6.85,1.47c3.31-2.56,5.6-6.95,7.49-10.56a31.27,31.27,0,0,1,3-5.1h3.27l-.43,2.63a.51.51,0,0,0,.64.57l3-.82.93,3.06c-.11.16-.22.31-.34.46m5.28-9.59a4.59,4.59,0,0,0-1.73-.32,4.28,4.28,0,0,0-3.64,2,5.41,5.41,0,0,0-3.07-.9,6.38,6.38,0,0,0-4,1.56c-1.28,1.1-2.45,3.35-3.82,6-2.06,4-4.63,8.88-8.39,11a.5.5,0,0,0-.25.55.51.51,0,0,0,.45.4,14.68,14.68,0,0,0,1.49.08,19.12,19.12,0,0,0,7.37-1.56,29.35,29.35,0,0,0,11.09-8.58,5.91,5.91,0,0,0,.81-6.78A2.58,2.58,0,0,1,232.7,21a2.42,2.42,0,0,1,1,.2.53.53,0,0,0,.49-.05.5.5,0,0,0,.23-.42V19.35a.51.51,0,0,0-.31-.47" style="fill-rule:evenodd"/></g><g id="a8063948-46ba-4dee-8bd1-6b9fe584398d" data-name="Group-51"><path id="a9fdcec0-f070-4ea3-a8a6-b84c1979a647" data-name="Fill-41" d="M144,25a.49.49,0,1,1-.49-.49A.49.49,0,0,1,144,25" style="fill-rule:evenodd"/><path id="a9d872f5-36c4-4222-a424-9dbd3981d097" data-name="Fill-43" d="M138.17,25.93a.49.49,0,1,1-.49-.49.49.49,0,0,1,.49.49" style="fill-rule:evenodd"/><path id="a100ab01-d1df-4455-bc96-0da5c10e4a94" data-name="Fill-45" d="M133.3,25a.48.48,0,0,1-.48.48.49.49,0,1,1,0-1,.48.48,0,0,1,.48.49" style="fill-rule:evenodd"/><path id="ac6bf4d5-59c2-4bf2-ba7f-0b98c3c691ba" data-name="Fill-47" d="M142.76,36.1H132.6a8.64,8.64,0,0,1-6.38-7.75h13.4a.49.49,0,1,0,0-1h-12.1a2.43,2.43,0,0,1,2.38-1.94.49.49,0,0,0,.49-.48,2.44,2.44,0,0,1,2.2-2.42c.11.13.22.25.34.37a5.3,5.3,0,0,0,3.78,1.56h1.94a5.31,5.31,0,0,0,4.12-1.93A2.44,2.44,0,0,1,145,25a.49.49,0,0,0,.49.48,2.43,2.43,0,0,1,2.38,1.94h-4.33a.49.49,0,0,0,0,1h5.63a8.64,8.64,0,0,1-6.38,7.75ZM133,38h9.34v-1H133Zm-.19-18.41a4.37,4.37,0,0,1,4.35,3.87h-.46a4.35,4.35,0,0,1-4.35-3.87Zm9.72,0H143a4.22,4.22,0,0,1-.85,2.13,4.33,4.33,0,0,1-3.5,1.74h-.46a4.38,4.38,0,0,1,4.35-3.87Zm7.1,7.75h-.81a3.42,3.42,0,0,0-2.92-2.88,3.38,3.38,0,0,0-2.55-2.83,5.28,5.28,0,0,0,.64-2.53.48.48,0,0,0-.49-.48h-1a5.36,5.36,0,0,0-4.86,3.1,5.34,5.34,0,0,0-4.86-3.1h-1a.48.48,0,0,0-.49.48,5.25,5.25,0,0,0,.64,2.53,3.41,3.41,0,0,0-2.56,2.83,3.42,3.42,0,0,0-2.91,2.88h-.81a.49.49,0,0,0-.49.48c0,4.29,2.7,7.65,6.81,9.08v1.58a.49.49,0,0,0,.49.49h10.3a.49.49,0,0,0,.49-.49V36.94a9.51,9.51,0,0,0,6.81-9.08.49.49,0,0,0-.49-.48Z" style="fill-rule:evenodd"/><path id="e790fa6d-1375-445a-abe0-a2ce3ab9436b" data-name="Fill-49" d="M142.06,27.86a.49.49,0,1,1-.49-.48.49.49,0,0,1,.49.48" style="fill-rule:evenodd"/></g><g id="f14b81ef-5663-409f-ac0d-4b10313514a6" data-name="Group-56"><path id="b52e31f7-b82e-4cb8-b238-dd8bd448ad58" data-name="Fill-52" d="M268.49,109.41H247.14a2.87,2.87,0,0,1-2.87-2.86.57.57,0,0,1,.58-.57H253l2.13,2.12a.57.57,0,0,0,.81,0l1.89-1.89,1.89,1.89a.57.57,0,0,0,.81,0l2.13-2.12h8.14a.56.56,0,0,1,.57.57,2.86,2.86,0,0,1-2.87,2.86Zm-7-6.86h3l-4.35,4.33-1.49-1.47Zm-16.08,0h4.13l2.29,2.28h-6.42Zm10.1,4.33-4.35-4.33h8.71Zm8.28-2,2.29-2.28h4.13v2.28Zm.56-7.1a.58.58,0,0,1-.74-.34L262.76,95c.46.09.91.19,1.34.31l.6,1.65a.57.57,0,0,1-.34.73Zm-5.74,0a.58.58,0,0,1-.74-.34l-1-2.83,1,0h.25L259,97a.57.57,0,0,1-.34.73Zm-5.74,0a.57.57,0,0,1-.73-.34l-.74-2c.37-.1.74-.19,1.12-.27l.69,1.89a.57.57,0,0,1-.34.73Zm18.48,7.2v-2.54a1.67,1.67,0,0,0,1-1.89c-1.23-5.23-9.13-7.11-14.53-7.11a25.52,25.52,0,0,0-8.19,1.35.57.57,0,0,0-.35.73.58.58,0,0,0,.74.35l.29-.1.76,2.06a1.72,1.72,0,0,0,3.23-1.18l-.62-1.71c.65-.11,1.31-.2,2-.25l1.15,3.14A1.72,1.72,0,0,0,260,96.6l-.74-2c.72,0,1.44.12,2.16.23l1.09,3a1.72,1.72,0,0,0,3.23-1.18l-.3-.83c2.22.78,5.12,2.29,5.75,5a.56.56,0,0,1-.58.64H245a.56.56,0,0,1-.57-.64,5.41,5.41,0,0,1,1.8-2.83.57.57,0,1,0-.76-.86,6.54,6.54,0,0,0-2.16,3.43,1.66,1.66,0,0,0,1,1.89v2.54a1.73,1.73,0,0,0-1.14,1.62,4,4,0,0,0,4,4h21.35a4,4,0,0,0,4-4,1.72,1.72,0,0,0-1.15-1.62Z" style="fill-rule:evenodd"/><path id="eec1d474-7d98-47e1-8ac7-f4efb701b703" data-name="Fill-54" d="M248.29,96.2a.56.56,0,0,0-.57-.57.57.57,0,0,0-.58.57.58.58,0,0,0,.58.57.57.57,0,0,0,.57-.57" style="fill-rule:evenodd"/></g><g id="b1a7e946-4f8b-4581-b4f7-3eecda3c0caf" data-name="Group-63"><path id="a588c0bc-5e4c-43a8-a28a-7f5b496c4478" data-name="Fill-57" d="M74.6,90.88a.52.52,0,1,0,.74,0,.53.53,0,0,0-.74,0" style="fill-rule:evenodd"/><path id="a00c181b-6c47-4618-8b14-4b105af70867" data-name="Fill-59" d="M78.21,91.53a13.74,13.74,0,0,1-1.1,4.66,5.69,5.69,0,0,1-4.4-.79.52.52,0,1,0-.56.88,6.83,6.83,0,0,0,4.42,1.06,16.3,16.3,0,0,1-2.43,3.51c-.19.21-.39.42-.59.62-2.88,2.87-8.48,3.73-12.56,3.71,0-4.06.84-9.64,3.72-12.52.2-.2.41-.39.62-.58a16.42,16.42,0,0,1,3.53-2.43,6.68,6.68,0,0,0,.45,3.23.53.53,0,0,0,.68.29.52.52,0,0,0,.29-.68A5.53,5.53,0,0,1,70,89.12,13.53,13.53,0,0,1,74.64,88a4.18,4.18,0,0,1,2.87.69,4.07,4.07,0,0,1,.7,2.82m-5.4,14.34a.5.5,0,0,1-.73,0l-1.37-1.36a11.35,11.35,0,0,0,3.47-2.2,4.67,4.67,0,0,1-1.37,3.56m-12.33,6.38a4.64,4.64,0,0,1,0-5.78,4.68,4.68,0,0,1,0,5.78m-6.59-6.56a4.71,4.71,0,0,1,5.8,0,4.7,4.7,0,0,1-5.8,0m6.4-12.29A4.71,4.71,0,0,1,63.87,92a11.26,11.26,0,0,0-2.21,3.45l-1.37-1.36a.52.52,0,0,1,0-.73M74.6,87a16.64,16.64,0,0,0-9.76,4.14,5.76,5.76,0,0,0-5.28,1.54,1.55,1.55,0,0,0,0,2.2l1.69,1.69a26.85,26.85,0,0,0-1.3,8,5.73,5.73,0,0,0-7.21.73.52.52,0,0,0,0,.73,5.69,5.69,0,0,0,4,1.67,5.79,5.79,0,0,0,2-.35,5.77,5.77,0,0,0-.35,2,5.63,5.63,0,0,0,1.68,4,.51.51,0,0,0,.37.15.51.51,0,0,0,.36-.15,5.7,5.7,0,0,0,.74-7.18,27.34,27.34,0,0,0,8.07-1.3l1.69,1.69a1.56,1.56,0,0,0,2.21,0,5.71,5.71,0,0,0,1.54-5.27,16.41,16.41,0,0,0,4.16-9.78,5,5,0,0,0-1-3.58,5.05,5.05,0,0,0-3.65-1" style="fill-rule:evenodd"/><path id="a82005c3-344a-4cf7-a50c-bd3b34634505" data-name="Fill-61" d="M70.5,94.1a.52.52,0,1,0,.74,0,.53.53,0,0,0-.74,0" style="fill-rule:evenodd"/></g><g id="b55b95fc-1df6-48d5-bed2-0b6d8904d627" data-name="Group-78"><path id="b75c8baa-1361-4499-97ac-a3a044fb2169" data-name="Fill-64" d="M131,95.86a2.45,2.45,0,0,0-.89-.29,2.57,2.57,0,0,0-2.89,2.21,2.56,2.56,0,0,0,2.14,2.86l-1.12,3.27-1.29-1a.57.57,0,0,0-.69.9L127.8,105l-2.92,8.51A3,3,0,0,0,124,113,24.06,24.06,0,0,1,110.9,99.94a2.93,2.93,0,0,0-.31-.58l1.51-.54a2.54,2.54,0,0,0,.51,1.26,2.51,2.51,0,0,0,1.71,1,2,2,0,0,0,.34,0,2.6,2.6,0,0,0,1.56-.53,2.56,2.56,0,0,0,.6-3.41l7-2.5.26.64a.56.56,0,0,0,.53.35.54.54,0,0,0,.21,0,.55.55,0,0,0,.31-.73l-.25-.59,7.5-2.67Zm-1.26,3.68h-.15a1.42,1.42,0,0,1-1-.55,1.43,1.43,0,0,1,1.33-2.29,1.49,1.49,0,0,1,.67.26Zm-5,17.09a2,2,0,0,1-2.56,1.05,29.07,29.07,0,0,1-15.88-15.81,2,2,0,0,1,1.06-2.56,2,2,0,0,1,2.57,1.06,25.32,25.32,0,0,0,13.75,13.7,2,2,0,0,1,1.06,2.56Zm-11.45-18.2,2.48-.89a1.44,1.44,0,0,1-1.23,2.41,1.43,1.43,0,0,1-1-.55,1.36,1.36,0,0,1-.29-1Zm20.51-8.15a.59.59,0,0,0-.59-.13l-23.48,8.34a3.13,3.13,0,0,0-2.8-.22,3.09,3.09,0,0,0-1.67,4,30.39,30.39,0,0,0,16.48,16.43,3.3,3.3,0,0,0,1.18.23,3.08,3.08,0,0,0,2.85-4.29l8.16-23.81a.56.56,0,0,0-.13-.58Z" style="fill-rule:evenodd"/><path id="a54c77c5-60ce-4fab-a10a-56970461ef7b" data-name="Fill-66" d="M111.06,105.23h0a.56.56,0,1,0-.47.88.59.59,0,0,0,.31-.09.57.57,0,0,0,.17-.78" style="fill-rule:evenodd"/><path id="b7a9108a-44fc-4129-9422-f3ad826e0514" data-name="Fill-68" d="M110.2,103.83a25.88,25.88,0,0,1-1.47-3,.57.57,0,0,0-1,.43,27.38,27.38,0,0,0,1.54,3.12.55.55,0,0,0,.49.28.58.58,0,0,0,.28-.07.57.57,0,0,0,.21-.77" style="fill-rule:evenodd"/><path id="e1a720d8-bb93-4aff-b897-de441886efff" data-name="Fill-70" d="M123.73,100.06a1.43,1.43,0,0,1-1.42,1.24h-.19a1.44,1.44,0,0,1,.18-2.86l.19,0a1.43,1.43,0,0,1,1.24,1.61m-1.09-2.73a1.88,1.88,0,0,0-.34,0,2.56,2.56,0,0,0-.33,5.1l.34,0a2.56,2.56,0,0,0,.33-5.1" style="fill-rule:evenodd"/><path id="bd986523-b170-4883-bd79-fd78087feb0d" data-name="Fill-72" d="M123.59,107.06a1.44,1.44,0,0,1-1.43,1.25H122a1.43,1.43,0,0,1-1-.55,1.39,1.39,0,0,1-.29-1.06,1.44,1.44,0,0,1,1.43-1.25h.19a1.45,1.45,0,0,1,1.24,1.61m-1.1-2.73-.33,0a2.58,2.58,0,0,0-2.55,2.23,2.57,2.57,0,0,0,2.21,2.88l.34,0a2.57,2.57,0,0,0,.33-5.11" style="fill-rule:evenodd"/><path id="a30d5a36-9e36-4204-9d8c-5915cda98afc" data-name="Fill-74" d="M118.77,102l-1.74-.23a.56.56,0,0,0-.63.49.55.55,0,0,0,.48.63l1.74.23h.07a.56.56,0,0,0,.08-1.12" style="fill-rule:evenodd"/><path id="fc65a6a0-5aeb-4566-b461-d9f4a89c64ed" data-name="Fill-76" d="M117.89,106.16l-.16-1.16a.56.56,0,0,0-1.12.14l.15,1.17a.57.57,0,0,0,.56.48h.08a.56.56,0,0,0,.49-.63" style="fill-rule:evenodd"/></g><g id="b22227cf-c284-456e-bd45-23144c6f57e8" data-name="Group-87"><path id="a67f8833-77c3-4b4e-bedd-6b09f4cc538c" data-name="Fill-79" d="M402.72,20.51l-1-1.4a.84.84,0,0,1,.42-.05.92.92,0,0,1,.62,1.45Zm-6.17,9.77A15.22,15.22,0,0,1,383.4,31l-1.33-.54A.81.81,0,0,1,382,29l0,0a9.43,9.43,0,0,0,5-5.59l0-.11a8.81,8.81,0,0,1,4.24-5.06l.13-.07a7.79,7.79,0,0,1,9,1.17l1.58,2.12a10.82,10.82,0,0,1-5.56,8.83ZM394,10.61a7.57,7.57,0,0,1,7.38,0l.92.53-1.05.55a7.58,7.58,0,0,1-7.49-.29l-.58-.37Zm4.52,3.78a7.53,7.53,0,0,1-5.08-1.49q-.07-.27-.18-.54a8.63,8.63,0,0,0,4.5,1.27,8.81,8.81,0,0,0,1.36-.11l.59.79Zm-6.17-4.7-.44.75L390.82,10l.48-.87a.57.57,0,0,1,.39-.3.6.6,0,0,1,.49.08.61.61,0,0,1,.19.82Zm11.22,9.15a2,2,0,0,0-2.64-.55,8.84,8.84,0,0,0-7-2,11.84,11.84,0,0,0-.17-1.88A8.55,8.55,0,0,0,398,15.46c.21,0,.42,0,.63,0l2.15-.16a.52.52,0,0,0,.44-.3.51.51,0,0,0-.06-.53l-.89-1.19a8,8,0,0,0,1.49-.6l1.91-1a.51.51,0,0,0,.28-.45.51.51,0,0,0-.26-.47l-1.76-1a8.58,8.58,0,0,0-4.2-1.13A8.67,8.67,0,0,0,393.5,9.7h0A1.69,1.69,0,0,0,392.77,8a1.64,1.64,0,0,0-1.33-.23,1.67,1.67,0,0,0-1.06.81l-.53,1-.13-.06-.09,0a9,9,0,0,0-4.51.1,8.86,8.86,0,0,0-3.83,2.27.52.52,0,0,0,0,.74.53.53,0,0,0,.74,0,7.82,7.82,0,0,1,7.3-2.1l2.43,1a10.85,10.85,0,0,1,1.17,5,8.69,8.69,0,0,0-1.92.75l-.13.07A9.94,9.94,0,0,0,386.15,23l0,.11a8.34,8.34,0,0,1-4.46,5l0,0a1.87,1.87,0,0,0-1,1.05l-.25,0-1.42.2a.79.79,0,0,1-.8-.39.77.77,0,0,1,0-.88l0,0a9.37,9.37,0,0,0,1.54-7.35l0-.11a8.78,8.78,0,0,1,.4-5,.53.53,0,0,0-1-.38,9.89,9.89,0,0,0-.45,5.62l0,.11a8.31,8.31,0,0,1-1.37,6.52l0,0a1.83,1.83,0,0,0-.08,2,1.86,1.86,0,0,0,1.59.89h.26l1.42-.2h.05a1.83,1.83,0,0,0,1.1,1.29L383,32a16.43,16.43,0,0,0,6.2,1.22c.31,0,.61,0,.92,0a16.54,16.54,0,0,0,6.94-2,11.83,11.83,0,0,0,6.1-9.65l0-.05a2,2,0,0,0,.38-2.66Z" style="fill-rule:evenodd"/><path id="e30aa02f-65d2-48d4-8d0a-208a141900e6" data-name="Fill-81" d="M380.78,13.21a.53.53,0,0,0-.72.17h0a.51.51,0,0,0,.17.72.56.56,0,0,0,.27.08.54.54,0,0,0,.46-.25h0a.52.52,0,0,0-.18-.72" style="fill-rule:evenodd"/><path id="e54aada1-ed49-46a6-a351-fd3dcc66f479" data-name="Fill-83" d="M400.28,23.09a.53.53,0,0,0-.66.34,8.78,8.78,0,0,1-4.09,5,13.67,13.67,0,0,1-3.06,1.22.53.53,0,0,0-.38.64.54.54,0,0,0,.51.39l.14,0a14.84,14.84,0,0,0,3.3-1.31,9.83,9.83,0,0,0,4.59-5.61.53.53,0,0,0-.35-.66" style="fill-rule:evenodd"/><path id="a79c320d-379b-4bde-93b5-dc863d5771f9" data-name="Fill-85" d="M391,30.46a.52.52,0,0,0-.58-.44.52.52,0,0,0,.06,1h.08a.52.52,0,0,0,.44-.6" style="fill-rule:evenodd"/></g></g></g></g></g></g></svg>