<svg id="Calque_1" data-name="Calque 1" xmlns="http://www.w3.org/2000/svg" viewBox="0 0 409.65 369.42"><defs><style>.cls-1{opacity:0.2;}.cls-2,.cls-3{fill-rule:evenodd;}.cls-3{fill:#ffc830;}</style></defs><title>Logo-keskonmang</title><g id="Page-1"><g id="HP-rouge-0-inactif"><g id="Group-89"><g id="Logo"><g id="icons" class="cls-1"><path id="Fill-23" class="cls-2" d="M61.66,316.17l-8.29-7.51a.49.49,0,0,0,0-.12,3,3,0,0,1,.77-2.44,1.69,1.69,0,0,1,1.25-.44,1.73,1.73,0,0,1,1.15.52l0,.05A3.5,3.5,0,0,0,59,307.38a3.45,3.45,0,0,0,2.53-.9,3.49,3.49,0,0,0,.61-4.48,4.59,4.59,0,0,0-5.83-5.84l-.14,0a4,4,0,0,0-1.27-2.44,4,4,0,0,0-3.74-.94,6.47,6.47,0,0,0-3.26-6,4.81,4.81,0,0,0-.19-2.95,4.91,4.91,0,0,0-6.36-2.79l-.06,0A5.23,5.23,0,0,0,31.86,278a9.2,9.2,0,0,0-8.94-1.56.9.9,0,0,0-.53,1.15.89.89,0,0,0,1.14.53,7.35,7.35,0,0,1,7.67,1.7,3,3,0,0,0,.52.38.9.9,0,0,0,1.18-.46,3.44,3.44,0,1,1,6.3,2.76l-.5,1.08c0,.06-.05.11-.07.17a.88.88,0,0,0,.45,1.17.89.89,0,0,0,1.18-.44l.06-.13A3.07,3.07,0,0,1,42,282.78a3.12,3.12,0,0,1,4,4.16.89.89,0,0,0,.31,1.09l.07.06.17.09A4.63,4.63,0,0,1,49,294.26s0,.05,0,.07a.89.89,0,0,0,1.5.89,2.27,2.27,0,0,1,3.2-.14,2.3,2.3,0,0,1,.73,1.57,2.25,2.25,0,0,1-.16.93,5,5,0,0,0-.58.91.88.88,0,0,0,.29,1.12.9.9,0,0,0,1.16-.12h0a4.11,4.11,0,0,0,.64-.92,2.75,2.75,0,0,1,1.11-.71,2.81,2.81,0,0,1,3.43,3.89.88.88,0,0,0,0,.86l.1.14a1.72,1.72,0,0,1-.13,2.42,1.75,1.75,0,0,1-1.25.44,1.73,1.73,0,0,1-1.15-.52l0-.05a3.49,3.49,0,0,0-2.42-1.16,3.54,3.54,0,0,0-2.53.9,4.46,4.46,0,0,0-1.27,2.35l-1-.89a5.25,5.25,0,0,1-1.06-2.89,3.37,3.37,0,0,0,1.09.18h.09a3.39,3.39,0,0,0,2.38-1.06.89.89,0,0,0-1.29-1.23,1.64,1.64,0,0,1-1.14.5,1.61,1.61,0,0,1-.89-.24,5.23,5.23,0,0,1,1.77-2.56.88.88,0,0,0,.15-1.25.89.89,0,0,0-1.25-.16,7,7,0,0,0-2.65,4.69,7.14,7.14,0,0,0,0,1.46l-4.78-4.33v0A5.24,5.24,0,0,1,44,292a.89.89,0,0,0-1.1-1.41,6.91,6.91,0,0,0-1.44,1.52,2.33,2.33,0,0,1,.2-3,.89.89,0,0,0-1.29-1.23,4.11,4.11,0,0,0,.13,5.81l.09.07a8,8,0,0,0-.35,1.48,7.43,7.43,0,0,0,0,1.49L33.83,291a5.23,5.23,0,0,1,.92-7.34.89.89,0,0,0-1.1-1.41A7,7,0,0,0,31,288.37L26.2,284a.9.9,0,0,0-1.24,0,.89.89,0,0,0,0,1.23l3.83,4.18a7.14,7.14,0,0,0-1.46,0,7,7,0,0,0-4.69,2.65.88.88,0,0,0,.15,1.25.86.86,0,0,0,.55.19.87.87,0,0,0,.7-.34,5.25,5.25,0,0,1,7.38-.9h0l5.76,6.28a7,7,0,0,0-2.88.34l0,0a4.1,4.1,0,0,0-5.81.13.9.9,0,0,0,0,1.27.91.91,0,0,0,1.26,0,2.31,2.31,0,0,1,2.78-.44A6.81,6.81,0,0,0,31,301.32a.89.89,0,0,0,.15,1.26.94.94,0,0,0,.55.19.88.88,0,0,0,.7-.35,5.27,5.27,0,0,1,7.38-.9l0,0,4.38,4.77A7.05,7.05,0,0,0,38.05,309a.88.88,0,0,0,.15,1.25.9.9,0,0,0,.55.19.91.91,0,0,0,.71-.34,5.18,5.18,0,0,1,2.63-1.79,1.59,1.59,0,0,1,0,2.19.9.9,0,0,0,0,1.27.91.91,0,0,0,1.26,0,3.38,3.38,0,0,0,.94-2.43,3.42,3.42,0,0,0-.24-1.2,5.17,5.17,0,0,1,2.77,1.08l1.33,1.45a4.85,4.85,0,0,0-2.3,1.22,3.5,3.5,0,0,0,.26,4.95l0,0a1.72,1.72,0,0,1-2.33,2.53l-.14-.1a.9.9,0,0,0-.87,0,2.79,2.79,0,0,1-2.14.14,2.8,2.8,0,0,1-1-4.68,4.11,4.11,0,0,0,.92-.64h0a.88.88,0,0,0,.12-1.15.91.91,0,0,0-1.13-.3,4.66,4.66,0,0,0-.9.59,2.29,2.29,0,0,1-.94.15A2.24,2.24,0,0,1,35.56,311a2.21,2.21,0,0,1,.73-1.57.88.88,0,0,0,.16-1.11.89.89,0,0,0-1.05-.39l-.07,0a4.62,4.62,0,0,1-3.56,0,4.69,4.69,0,0,1-2.53-2.5.56.56,0,0,0-.09-.17l0-.07A.9.9,0,0,0,28,304.9a3.05,3.05,0,0,1-2.39.05,3.11,3.11,0,0,1-1.78-4,3.07,3.07,0,0,1,1.54-1.67l.13-.06a.89.89,0,0,0-.73-1.63l-.16.07-1.09.5a3.38,3.38,0,0,1-2.63.05,3.44,3.44,0,0,1-.13-6.35.9.9,0,0,0,.46-1.18,29.5,29.5,0,0,0-.37-.52,7.35,7.35,0,0,1-1.68-7.74.89.89,0,1,0-1.67-.63,9.14,9.14,0,0,0,1.53,9,5.22,5.22,0,0,0,1.21,9.07,5.3,5.3,0,0,0,1.95.36l0,.06a4.83,4.83,0,0,0,.08,3.75,4.9,4.9,0,0,0,2.71,2.6,4.82,4.82,0,0,0,3,.19,6.47,6.47,0,0,0,6,3.26,4.49,4.49,0,0,0-.12.83,4.07,4.07,0,0,0,3.52,4.18,4.59,4.59,0,0,0,5.78,6,3.56,3.56,0,0,0,1.88.54,3.51,3.51,0,0,0,2.36-6.11l-.05,0a1.71,1.71,0,0,1-.08-2.39,4.25,4.25,0,0,1,2.39-.87l2.33,2.54a.89.89,0,0,0,1.31-1.21l-14-15.23,10.13,9.18.12.11,11,9.92a1.33,1.33,0,0,1-.89,2.32h0a1.3,1.3,0,0,1-1-.44L57.28,318a.89.89,0,1,0-1.32,1.2l1.31,1.43a3.14,3.14,0,0,0,2.3,1h0a3.11,3.11,0,0,0,2.08-5.42" transform="translate(-0.69 -0.44)"/><g id="Group-33"><path id="Fill-25" class="cls-2" d="M398,271.7a4.79,4.79,0,0,1-2.19,1.15.75.75,0,0,0-.61.68.77.77,0,0,0,.46.79,5.43,5.43,0,0,1,2.74,2.89,5.61,5.61,0,0,0-2.72-.36,2.9,2.9,0,0,1-2.26-.47.76.76,0,0,0-.89-.14.78.78,0,0,0-.41.83,3.66,3.66,0,0,1-1.67,3.15,3.65,3.65,0,0,1-1.67-3.16.77.77,0,0,0-.41-.82.76.76,0,0,0-.9.14,2.87,2.87,0,0,1-2.26.47,5.79,5.79,0,0,0-2.73.36,5.44,5.44,0,0,1,2.75-2.89.8.8,0,0,0,.47-.79.78.78,0,0,0-.62-.68,4.79,4.79,0,0,1-2.19-1.15,10.51,10.51,0,0,0-1.66-1.13,10,10,0,0,1,6.84,0h0v1.13a.78.78,0,0,0,1.56,0v-1.51a7,7,0,0,1,2.57-5.46l2.12-1.75a.84.84,0,0,1,1.1,0,.85.85,0,0,1,.28.64.84.84,0,0,1-.32.64l-.81.65a8.61,8.61,0,0,0-3.23,6.75.78.78,0,0,0,1.55,0,7.72,7.72,0,0,1,.1-1.18h0a6.84,6.84,0,0,1,3.66-.59,10.43,10.43,0,0,1,2.92.65A11.12,11.12,0,0,0,398,271.7m8.76,3-.1-.11a14.23,14.23,0,0,0-4.59-3.4.78.78,0,0,0,.2-.43.8.8,0,0,0-.36-.75,11.36,11.36,0,0,0-8.28-1.34,7,7,0,0,1,2-2.45l.82-.66a2.4,2.4,0,1,0-3-3.71l-2.12,1.75a8.69,8.69,0,0,0-3.05,5.46,10.61,10.61,0,0,0-9.2,1,.76.76,0,0,0-.17,1.18,13.14,13.14,0,0,0-2,1.16.78.78,0,0,0,.44,1.42.82.82,0,0,0,.44-.14,12.46,12.46,0,0,1,3.05-1.53,12.67,12.67,0,0,1,1.21.85,8.23,8.23,0,0,0,1.22.86,7.88,7.88,0,0,0-2.68,4.82.77.77,0,0,0,1.21.73,5.66,5.66,0,0,1,3.32-.94,5,5,0,0,0,2.32-.2,5.9,5.9,0,0,0,2.7,3.64.78.78,0,0,0,.86,0,5.87,5.87,0,0,0,2.69-3.64,5,5,0,0,0,2.32.2,5.6,5.6,0,0,1,3.32.94.77.77,0,0,0,.85,0,.8.8,0,0,0,.37-.76,8,8,0,0,0-2.69-4.82,8.23,8.23,0,0,0,1.22-.86,11.1,11.1,0,0,1,1.21-.85,12.64,12.64,0,0,1,5.33,3.53l.1.11A12.62,12.62,0,0,1,404,294l-.12.1a25.47,25.47,0,0,1-13.46,5.42,25.58,25.58,0,0,1-13.49-5.43l-.1-.09a12.62,12.62,0,0,1-3.43-15.57.78.78,0,0,0-1.4-.7,14.21,14.21,0,0,0,3.86,17.49l.11.09a27.12,27.12,0,0,0,14.37,5.75h.15a27,27,0,0,0,14.36-5.74l.12-.1a14.2,14.2,0,0,0,1.76-20.58" transform="translate(-0.69 -0.44)"/><path id="Fill-27" class="cls-2" d="M375.29,274.5a.78.78,0,0,0-1.1.06l-.09.11a.78.78,0,0,0,.06,1.1.79.79,0,0,0,.52.2.8.8,0,0,0,.58-.26l.1-.11a.79.79,0,0,0-.07-1.1" transform="translate(-0.69 -0.44)"/><path id="Fill-29" class="cls-2" d="M403.15,291.72a.78.78,0,0,0-1.09-.12l-.12.09a22.3,22.3,0,0,1-8.49,4.19.78.78,0,0,0,.19,1.53.65.65,0,0,0,.19,0,23.85,23.85,0,0,0,9.08-4.48l.12-.09a.79.79,0,0,0,.12-1.1" transform="translate(-0.69 -0.44)"/><path id="Fill-31" class="cls-2" d="M391,297.15a.78.78,0,0,0-.85-.7h-.06a.78.78,0,0,0,.07,1.55h.14a.78.78,0,0,0,.7-.85" transform="translate(-0.69 -0.44)"/></g><g id="Group-40"><path id="Fill-34" class="cls-2" d="M283.94,51.35a.83.83,0,0,0-1.16.15h0a.83.83,0,0,0,.66,1.33.81.81,0,0,0,.66-.33h0a.84.84,0,0,0-.16-1.16" transform="translate(-0.69 -0.44)"/><path id="Fill-36" class="cls-2" d="M291.36,38.71a.83.83,0,0,0-1.17,0v0c-1.41,1.36-2.91,4.41-4.23,7.09-.65,1.31-1.26,2.56-1.87,3.64a.84.84,0,0,0,.32,1.13.86.86,0,0,0,.41.1.82.82,0,0,0,.72-.42c.63-1.13,1.25-2.38,1.91-3.72,1.19-2.44,2.69-5.47,3.89-6.64l0,0a.82.82,0,0,0,0-1.17" transform="translate(-0.69 -0.44)"/><path id="Fill-38" class="cls-2" d="M303.24,32.83l-.31-.32-.06-.06a5.23,5.23,0,0,1,4.55-2.64,6.19,6.19,0,0,1,1.64.22v.53a6,6,0,0,0-1.12-.11,5.83,5.83,0,0,0-4.7,2.38m.1,8.46-1.23-4.06a.84.84,0,0,0-1-.56l-4.28,1.2.65-3.92a.81.81,0,0,0-.19-.67.83.83,0,0,0-.63-.3h-4.37a8.14,8.14,0,0,1,4.46-1.38,7,7,0,0,1,5,2.08,7.23,7.23,0,0,1,1.58,7.61m-1.63,2.87c-5.25,6.3-11,10.81-17.22,13.39a29.37,29.37,0,0,1-11,2.38c5.32-4.14,9-11.23,12-17.06a50,50,0,0,1,4.87-8.23h5.27l-.7,4.24a.81.81,0,0,0,.26.75.82.82,0,0,0,.78.18l4.76-1.33,1.5,4.94c-.17.25-.36.5-.55.74m8.5-15.48a7.3,7.3,0,0,0-2.79-.53,6.9,6.9,0,0,0-5.85,3.25A8.59,8.59,0,0,0,296.62,30a10.08,10.08,0,0,0-6.42,2.51c-2.06,1.78-4,5.42-6.15,9.63-3.32,6.39-7.46,14.33-13.53,17.82a.83.83,0,0,0,.33,1.54,22.41,22.41,0,0,0,2.41.12,31,31,0,0,0,11.87-2.5c6.43-2.69,12.43-7.35,17.85-13.87a9.51,9.51,0,0,0,1.3-11,4.19,4.19,0,0,1,3.66-2.15,4.25,4.25,0,0,1,1.62.32.83.83,0,0,0,1.16-.76V29.44a.83.83,0,0,0-.51-.76" transform="translate(-0.69 -0.44)"/></g><g id="Group-51"><path id="Fill-41" class="cls-2" d="M203.91,21.19a1.12,1.12,0,1,1-1.12-1.11,1.11,1.11,0,0,1,1.12,1.11" transform="translate(-0.69 -0.44)"/><path id="Fill-43" class="cls-2" d="M190.56,23.41a1.11,1.11,0,1,1-1.11-1.11,1.11,1.11,0,0,1,1.11,1.11" transform="translate(-0.69 -0.44)"/><path id="Fill-45" class="cls-2" d="M179.45,21.19a1.11,1.11,0,1,1-1.11-1.11,1.11,1.11,0,0,1,1.11,1.11" transform="translate(-0.69 -0.44)"/><path id="Fill-47" class="cls-2" d="M201.06,46.74H177.84C169.2,44,163.7,37.23,163.25,29H193.9a1.11,1.11,0,0,0,0-2.22H166.22a5.58,5.58,0,0,1,5.45-4.45,1.11,1.11,0,0,0,1.11-1.11,5.58,5.58,0,0,1,5-5.53,10.27,10.27,0,0,0,.76.84,12.15,12.15,0,0,0,8.65,3.58h4.45a12.11,12.11,0,0,0,9.41-4.42,5.58,5.58,0,0,1,5,5.53,1.11,1.11,0,0,0,1.11,1.11,5.59,5.59,0,0,1,5.45,4.45h-9.9a1.11,1.11,0,1,0,0,2.22h12.87c-.45,8.26-5.95,15-14.6,17.77Zm-22.28,4.45h21.35V49H178.78ZM178.34,9a10,10,0,0,1,9.94,8.89h-1.05A10,10,0,0,1,177.29,9Zm22.23,0h1.05a9.77,9.77,0,0,1-1.94,4.89,9.94,9.94,0,0,1-8,4h-1.05A10,10,0,0,1,200.57,9ZM216.8,26.75h-1.86a7.79,7.79,0,0,0-6.66-6.6,7.78,7.78,0,0,0-5.83-6.5,12.2,12.2,0,0,0,1.46-5.79,1.12,1.12,0,0,0-1.12-1.11h-2.22a12.23,12.23,0,0,0-11.11,7.13,12.23,12.23,0,0,0-11.12-7.13h-2.23A1.11,1.11,0,0,0,175,7.86a12.08,12.08,0,0,0,1.46,5.79,7.8,7.8,0,0,0-5.84,6.5,7.81,7.81,0,0,0-6.66,6.6h-1.85A1.12,1.12,0,0,0,161,27.86c0,9.83,6.16,17.54,15.57,20.8V52.3a1.11,1.11,0,0,0,1.11,1.11h23.57a1.11,1.11,0,0,0,1.11-1.11V48.66c9.41-3.26,15.56-11,15.56-20.8a1.11,1.11,0,0,0-1.11-1.11Z" transform="translate(-0.69 -0.44)"/><path id="Fill-49" class="cls-2" d="M199.46,27.86a1.11,1.11,0,1,1-1.11-1.11,1.11,1.11,0,0,1,1.11,1.11" transform="translate(-0.69 -0.44)"/></g><g id="Group-56"><path id="Fill-52" class="cls-2" d="M324.86,130.19H285a5.36,5.36,0,0,1-5.35-5.35,1.07,1.07,0,0,1,1.07-1.07h15.19l4,4a1.05,1.05,0,0,0,1.51,0l3.53-3.52,3.52,3.52a1.09,1.09,0,0,0,.76.32,1.07,1.07,0,0,0,.76-.32l4-4h15.19a1.07,1.07,0,0,1,1.07,1.07,5.36,5.36,0,0,1-5.35,5.35Zm-13.05-12.84h5.53l-8.12,8.11-2.77-2.76Zm-30,0h7.69l4.29,4.28h-12Zm18.85,8.11-8.13-8.11h16.25Zm15.43-3.83,4.28-4.28h7.7v4.28Zm1.05-13.29a1.07,1.07,0,0,1-1.37-.64l-1.61-4.4c.85.17,1.69.37,2.5.58l1.12,3.08a1.08,1.08,0,0,1-.64,1.38Zm-10.71,0a1.08,1.08,0,0,1-1.37-.64l-1.93-5.29c.61,0,1.22,0,1.81,0h.46l1.67,4.59a1.07,1.07,0,0,1-.64,1.38Zm-10.71,0a1.08,1.08,0,0,1-1.37-.64L293,104c.69-.19,1.39-.36,2.1-.52l1.28,3.53a1.07,1.07,0,0,1-.64,1.38Zm34.49,13.47v-4.75a3.12,3.12,0,0,0,1.83-3.54c-2.29-9.79-17-13.29-27.1-13.29a47.3,47.3,0,0,0-15.28,2.52,1.07,1.07,0,1,0,.72,2l.55-.19,1.41,3.86a3.21,3.21,0,0,0,6-2.2L297.21,103c1.21-.2,2.45-.36,3.7-.47l2.14,5.88a3.21,3.21,0,0,0,6-2.2l-1.38-3.78c1.34.09,2.68.23,4,.43l2,5.55a3.21,3.21,0,1,0,6-2.2l-.57-1.56c4.16,1.45,9.56,4.28,10.73,9.34a1,1,0,0,1-1.07,1.2H281a1.05,1.05,0,0,1-1.07-1.2,10.19,10.19,0,0,1,3.36-5.31,1.07,1.07,0,0,0-1.42-1.6,12.24,12.24,0,0,0-4,6.42,3.11,3.11,0,0,0,1.83,3.54v4.75a3.22,3.22,0,0,0-2.15,3,7.51,7.51,0,0,0,7.5,7.49h39.84a7.5,7.5,0,0,0,7.49-7.49,3.21,3.21,0,0,0-2.14-3Z" transform="translate(-0.69 -0.44)"/><path id="Fill-54" class="cls-2" d="M287.16,105.47a1.07,1.07,0,1,0-1.07,1.07,1.07,1.07,0,0,0,1.07-1.07" transform="translate(-0.69 -0.44)"/></g><g id="Group-63"><path id="Fill-57" class="cls-2" d="M74.43,6.76a.84.84,0,1,0,1.18,0,.83.83,0,0,0-1.18,0" transform="translate(-0.69 -0.44)"/><path id="Fill-59" class="cls-2" d="M80.24,7.8a21.79,21.79,0,0,1-1.77,7.53,9.16,9.16,0,0,1-7.08-1.27.84.84,0,0,0-.91,1.41,11,11,0,0,0,7.12,1.71,26.37,26.37,0,0,1-3.92,5.68c-.3.34-.62.68-.94,1-4.64,4.63-13.66,6-20.24,6,0-6.56,1.35-15.57,6-20.22.33-.32.66-.64,1-.94a26.26,26.26,0,0,1,5.68-3.92A10.78,10.78,0,0,0,65.91,10a.84.84,0,1,0,1.56-.62A9,9,0,0,1,67,3.9a22.26,22.26,0,0,1,7.45-1.77c2.33-.09,4,.5,4.63,1.12s1.2,2.26,1.12,4.55M71.55,31a.84.84,0,0,1-1.19,0l-2.2-2.2a18.32,18.32,0,0,0,5.59-3.56A7.6,7.6,0,0,1,71.55,31M51.68,41.27a7.53,7.53,0,0,1,0-9.33,7.56,7.56,0,0,1,0,9.33M41.07,30.68a7.54,7.54,0,0,1,9.34,0,7.45,7.45,0,0,1-4.67,1.61,7.55,7.55,0,0,1-4.67-1.61M51.38,10.82a7.61,7.61,0,0,1,5.77-2.2,18.1,18.1,0,0,0-3.57,5.58L51.38,12a.83.83,0,0,1,0-1.18M74.42.45a26.69,26.69,0,0,0-15.71,6.7A9.27,9.27,0,0,0,50.2,9.63a2.52,2.52,0,0,0,0,3.56l2.72,2.72a44.2,44.2,0,0,0-2.1,13,9.23,9.23,0,0,0-11.6,1.18.84.84,0,0,0,0,1.19A9.17,9.17,0,0,0,45.74,34,9.31,9.31,0,0,0,49,33.4a9.29,9.29,0,0,0-.57,3.2,9.15,9.15,0,0,0,2.7,6.52.83.83,0,0,0,1.19,0,9.22,9.22,0,0,0,1.18-11.59,43.6,43.6,0,0,0,13-2.1l2.73,2.73a2.52,2.52,0,0,0,3.56,0,9.27,9.27,0,0,0,2.48-8.51c3.68-4.2,6.51-10.15,6.7-15.79.09-2.53-.52-4.7-1.61-5.79S77,.36,74.42.45" transform="translate(-0.69 -0.44)"/><path id="Fill-61" class="cls-2" d="M67.82,12a.86.86,0,0,0,0,1.19A.84.84,0,0,0,69,12a.86.86,0,0,0-1.19,0" transform="translate(-0.69 -0.44)"/></g><g id="Group-78"><path id="Fill-64" class="cls-2" d="M51.86,158.76a5.06,5.06,0,1,0-3.22,9.43l-2.22,6.46-2.54-2a1.12,1.12,0,0,0-1.56.21,1.1,1.1,0,0,0,.21,1.55l3.13,2.41-5.75,16.81a6,6,0,0,0-1.66-1A47.43,47.43,0,0,1,12.4,166.81a6.28,6.28,0,0,0-.63-1.14l3-1.06A5,5,0,0,0,19.12,169a5.06,5.06,0,0,0,5.68-4.35A5.09,5.09,0,0,0,24,161.3l13.83-4.93.53,1.26a1.1,1.1,0,0,0,1,.69,1.25,1.25,0,0,0,.42-.08,1.11,1.11,0,0,0,.6-1.46L40,155.62l14.77-5.26ZM49.38,166l-.31,0a2.83,2.83,0,0,1-1.88-1.09,2.8,2.8,0,0,1-.56-2.09,2.84,2.84,0,0,1,3.18-2.44,2.8,2.8,0,0,1,1.31.53Zm-9.89,33.71a3.86,3.86,0,0,1-5,2.09A57.31,57.31,0,0,1,3.21,170.61a3.78,3.78,0,0,1,0-3,3.84,3.84,0,0,1,2.08-2.09,3.86,3.86,0,0,1,5.05,2.09,50,50,0,0,0,27.06,27,3.86,3.86,0,0,1,2.09,5ZM17,163.82l4.9-1.74a2.83,2.83,0,1,1-4.32,3.66,2.78,2.78,0,0,1-.58-1.92Zm40.37-16.07a1.13,1.13,0,0,0-1.16-.26L10,164a6.08,6.08,0,0,0-8.8,7.51,60,60,0,0,0,32.44,32.41,6,6,0,0,0,2.33.47,6.11,6.11,0,0,0,5.63-3.76,6,6,0,0,0,0-4.72l16.08-47a1.12,1.12,0,0,0-.27-1.15Z" transform="translate(-0.69 -0.44)"/><path id="Fill-66" class="cls-2" d="M12.7,177.25v0a1.12,1.12,0,1,0-.32,1.56,1.12,1.12,0,0,0,.32-1.56" transform="translate(-0.69 -0.44)"/><path id="Fill-68" class="cls-2" d="M11,174.49a52.15,52.15,0,0,1-2.9-5.91,1.11,1.11,0,0,0-2,.85,54,54,0,0,0,3,6.16,1.1,1.1,0,0,0,1,.56,1.07,1.07,0,0,0,.55-.14,1.12,1.12,0,0,0,.42-1.52" transform="translate(-0.69 -0.44)"/><path id="Fill-70" class="cls-2" d="M37.65,167a2.83,2.83,0,0,1-2.8,2.47,2.43,2.43,0,0,1-.38,0,2.83,2.83,0,0,1,.37-5.64,2.3,2.3,0,0,1,.37,0A2.83,2.83,0,0,1,37.65,167m-2.15-5.38a4.89,4.89,0,0,0-.66,0,5.11,5.11,0,1,0,.66,0" transform="translate(-0.69 -0.44)"/><path id="Fill-72" class="cls-2" d="M37.36,180.87a2.83,2.83,0,0,1-2.8,2.46l-.38,0a2.83,2.83,0,0,1-1.88-1.09,2.8,2.8,0,0,1-.56-2.09,2.84,2.84,0,0,1,2.81-2.47,2.31,2.31,0,0,1,.37,0,2.83,2.83,0,0,1,2.44,3.18m-2.15-5.39c-.22,0-.44,0-.66,0a5.05,5.05,0,0,0-4,8.14,5.17,5.17,0,0,0,4,2,5.06,5.06,0,0,0,.65-10.08" transform="translate(-0.69 -0.44)"/><path id="Fill-74" class="cls-2" d="M27.87,170.88l-3.42-.45a1.11,1.11,0,0,0-.29,2.2l3.42.45h.15a1.1,1.1,0,0,0,1.1-1,1.11,1.11,0,0,0-1-1.25" transform="translate(-0.69 -0.44)"/><path id="Fill-76" class="cls-2" d="M26.14,179.08l-.3-2.29a1.11,1.11,0,1,0-2.21.29l.3,2.29a1.13,1.13,0,0,0,1.11,1h.14a1.11,1.11,0,0,0,1-1.25" transform="translate(-0.69 -0.44)"/></g><g id="Group-87"><path id="Fill-79" class="cls-2" d="M144.41,349.34l-1.68-2.27a1.52,1.52,0,0,1,.67-.07,1.47,1.47,0,0,1,1,2.34Zm-9.94,15.77a24.43,24.43,0,0,1-21.18,1.22l-2.13-.87a1.28,1.28,0,0,1-.81-1.18,1.26,1.26,0,0,1,.76-1.21l.07,0a15.11,15.11,0,0,0,8.09-9l.06-.17a14.31,14.31,0,0,1,6.84-8.18l.2-.11a12.52,12.52,0,0,1,14.51,1.89l2.55,3.42a17.46,17.46,0,0,1-9,14.26Zm-4.08-31.75a12.15,12.15,0,0,1,11.9.06l1.48.85-1.7.89a12.14,12.14,0,0,1-12-.47l-1-.6Zm7.29,6.1A12,12,0,0,1,129.5,337c-.09-.29-.18-.57-.29-.86a13.84,13.84,0,0,0,7.25,2.05,13.48,13.48,0,0,0,2.19-.18l.95,1.27Zm-9.94-7.59-.7,1.2-1.79-.77.77-1.41a1,1,0,0,1,1.42-.34,1,1,0,0,1,.3,1.32Zm18.08,14.77a3.19,3.19,0,0,0-4.26-.88,14.17,14.17,0,0,0-11.21-3.28,18.19,18.19,0,0,0-.28-3,13.87,13.87,0,0,0,6.73,1.75c.33,0,.67,0,1,0l3.45-.25a.85.85,0,0,0,.62-1.35l-1.42-1.91a13.75,13.75,0,0,0,2.4-1l3.07-1.61a.84.84,0,0,0,0-1.48L143.13,332a13.77,13.77,0,0,0-13.56-.07l0,0a2.69,2.69,0,0,0-5-1.82l-.84,1.54-.22-.09-.14,0a14.26,14.26,0,0,0-13.43,3.82.85.85,0,0,0,0,1.2.84.84,0,0,0,1.2,0,12.61,12.61,0,0,1,11.75-3.38l3.92,1.7a17.41,17.41,0,0,1,1.87,8,14.42,14.42,0,0,0-3.08,1.22l-.21.11a16,16,0,0,0-7.65,9.14l0,.17a13.49,13.49,0,0,1-7.18,8l-.08,0a3,3,0,0,0-1.57,1.69l-.41.06-2.28.31a1.31,1.31,0,0,1-1.24-2.05l0-.06a15.16,15.16,0,0,0,2.48-11.86l0-.19a14.31,14.31,0,0,1,.66-8.11.85.85,0,1,0-1.59-.61,16,16,0,0,0-.73,9.07l0,.18a13.41,13.41,0,0,1-2.21,10.53l0,.07a3,3,0,0,0,2.42,4.74l.42,0,2.29-.31h.08a3,3,0,0,0,1.78,2.08l2.14.88a26.45,26.45,0,0,0,10,2c.5,0,1,0,1.49,0a26.43,26.43,0,0,0,11.17-3.22A19,19,0,0,0,145.11,351l.09-.07a3.17,3.17,0,0,0,.62-4.31Z" transform="translate(-0.69 -0.44)"/><path id="Fill-81" class="cls-2" d="M109.08,337.55a.86.86,0,0,0-1.17.28h0a.83.83,0,0,0,.28,1.16.78.78,0,0,0,.44.13.86.86,0,0,0,.72-.41h0a.84.84,0,0,0-.28-1.16" transform="translate(-0.69 -0.44)"/><path id="Fill-83" class="cls-2" d="M140.48,353.51a.84.84,0,0,0-1.06.55,14.17,14.17,0,0,1-6.59,8.09,21.13,21.13,0,0,1-4.93,2,.85.85,0,0,0-.6,1,.84.84,0,0,0,.82.63l.21,0a22.82,22.82,0,0,0,5.32-2.12,15.87,15.87,0,0,0,7.39-9.06.84.84,0,0,0-.56-1.06" transform="translate(-0.69 -0.44)"/><path id="Fill-85" class="cls-2" d="M125.52,365.41a.85.85,0,1,0-.84,1h.13a.86.86,0,0,0,.71-1" transform="translate(-0.69 -0.44)"/></g></g><g id="typo"><polygon id="Fill-2" class="cls-3" points="97.55 82.19 118.57 54.56 139.85 54.56 113.56 86.28 142.31 121.56 119.98 121.56 97.55 92.5 97.55 121.56 80.31 121.56 80.31 54.56 97.55 54.56 97.55 82.19"/><path id="Fill-3" class="cls-3" d="M177.54,110.72a7.32,7.32,0,0,0-2.48-4.1,7.75,7.75,0,0,0-9.18-.07,6.69,6.69,0,0,0-2.25,4.17Zm-14.25,7.06q0,7.84,7.4,7.85a6.61,6.61,0,0,0,6-3.22h11.76q-3.56,11.82-17.81,11.82a23.23,23.23,0,0,1-8-1.31,17.66,17.66,0,0,1-6.22-3.73,16.49,16.49,0,0,1-4-5.77,19.29,19.29,0,0,1-1.41-7.53,21.24,21.24,0,0,1,1.34-7.76,16.34,16.34,0,0,1,3.83-5.87,16.88,16.88,0,0,1,6-3.73,22.62,22.62,0,0,1,8-1.31A22.12,22.12,0,0,1,178,98.53a16,16,0,0,1,5.92,3.79,16.6,16.6,0,0,1,3.7,6.08,24.15,24.15,0,0,1,1.28,8.1v1.28Z" transform="translate(-0.69 -0.44)"/><path id="Fill-5" class="cls-3" d="M221.64,95.1A14.38,14.38,0,0,0,215,93.33a5,5,0,0,0-2.75.68,2.1,2.1,0,0,0-1.06,1.83,2.48,2.48,0,0,0,.17,1,1.85,1.85,0,0,0,.75.71,6.37,6.37,0,0,0,1.7.61c.75.18,1.73.41,3,.68,3.39.68,5.93,1.89,7.6,3.63a9.25,9.25,0,0,1,2.52,6.69,12.18,12.18,0,0,1-1.22,5.5,11.76,11.76,0,0,1-3.4,4.11,16.09,16.09,0,0,1-5.23,2.58,23.41,23.41,0,0,1-6.73.91,27.37,27.37,0,0,1-13.93-4l4.49-8.69q5.16,3.52,9.78,3.53a4.83,4.83,0,0,0,2.79-.75,2.22,2.22,0,0,0,1.08-1.9,3,3,0,0,0-.17-1.12,1.83,1.83,0,0,0-.71-.81,5.57,5.57,0,0,0-1.6-.68c-.7-.21-1.62-.42-2.75-.65q-5.7-1.16-8-3.43A8.47,8.47,0,0,1,199,97.47a12.28,12.28,0,0,1,1.09-5.26,11,11,0,0,1,3.12-4,14.69,14.69,0,0,1,4.93-2.51,21.9,21.9,0,0,1,6.42-.88,29,29,0,0,1,11.21,2.24Z" transform="translate(-0.69 -0.44)"/><polygon id="Fill-7" class="cls-3" points="156.18 148.25 156.18 181.98 168.95 169.55 185.63 169.55 168.35 185.47 186.63 204.02 169.56 204.02 156.18 189.97 156.18 204.02 144.01 204.02 144.01 148.25 156.18 148.25"/><path id="Fill-9" class="cls-3" d="M208.31,207.59a7.9,7.9,0,0,0,.63,3.19,8.64,8.64,0,0,0,1.69,2.52,7.55,7.55,0,0,0,2.48,1.68,8.1,8.1,0,0,0,6.12,0,7.7,7.7,0,0,0,2.49-1.68,8.81,8.81,0,0,0,1.68-2.52,7.7,7.7,0,0,0,.64-3.12,7.56,7.56,0,0,0-.64-3.06,8.68,8.68,0,0,0-1.68-2.52,7.4,7.4,0,0,0-2.49-1.68,8,8,0,0,0-6.12,0,7.26,7.26,0,0,0-2.48,1.68,8.72,8.72,0,0,0-1.69,2.48,7.38,7.38,0,0,0-.63,3m-12.85-.14A16.74,16.74,0,0,1,197,200.3a17.69,17.69,0,0,1,4.3-5.78,20.61,20.61,0,0,1,6.56-3.86,23.67,23.67,0,0,1,8.3-1.41,24.19,24.19,0,0,1,8.24,1.37,20.54,20.54,0,0,1,6.59,3.83,17.24,17.24,0,0,1,4.33,5.85A17.88,17.88,0,0,1,231,221.12a19.15,19.15,0,0,1-6.62,3.8,25.24,25.24,0,0,1-8.37,1.35,24.11,24.11,0,0,1-8.2-1.35,18.85,18.85,0,0,1-6.49-3.83,17.66,17.66,0,0,1-4.27-5.94,18.68,18.68,0,0,1-1.55-7.7" transform="translate(-0.69 -0.44)"/><path id="Fill-11" class="cls-3" d="M250.41,174.66h12.17V179a13.38,13.38,0,0,1,5-4.07,15.88,15.88,0,0,1,6-1,14.88,14.88,0,0,1,6.22,1.18,12.41,12.41,0,0,1,4.4,3.32,9.72,9.72,0,0,1,2,3.9,20.72,20.72,0,0,1,.53,4.9v21.9H274.61V191.73a18.59,18.59,0,0,0-.37-4.14,5.07,5.07,0,0,0-1.31-2.52,4.7,4.7,0,0,0-1.81-1.14,6.91,6.91,0,0,0-2.15-.33,6,6,0,0,0-4.74,1.84,7.68,7.68,0,0,0-1.65,5.28v18.4H250.41Z" transform="translate(-0.69 -0.44)"/><path id="Fill-13" class="cls-3" d="M79.34,223.62h21v7.3q8.58-8.22,19.25-8.23,13.23,0,20.19,11.13,7.06-11.23,20.18-11.24a25.15,25.15,0,0,1,7.88,1.21,16.28,16.28,0,0,1,6.38,3.83,18.39,18.39,0,0,1,4.24,6.78A28.85,28.85,0,0,1,180,244.48v38.59H159V253.75a35.76,35.76,0,0,0-.64-7.41,11.59,11.59,0,0,0-1.86-4.52,6.08,6.08,0,0,0-2.84-2.21,10.41,10.41,0,0,0-3.48-.58q-10.08,0-10.09,14.72v29.32h-21V253.75a39.55,39.55,0,0,0-.58-7.47,14,14,0,0,0-1.68-4.7,5.6,5.6,0,0,0-2.84-2.37,11.69,11.69,0,0,0-4.06-.64,11.54,11.54,0,0,0-3.71.58,6.63,6.63,0,0,0-3.08,2.26,12.23,12.23,0,0,0-2.08,4.63,31.78,31.78,0,0,0-.76,7.71v29.32h-21Z" transform="translate(-0.69 -0.44)"/><path id="Fill-15" class="cls-3" d="M206.82,276.47a8,8,0,0,0,.61,3.12,7.87,7.87,0,0,0,1.65,2.52,7.26,7.26,0,0,0,2.48,1.68,8.12,8.12,0,0,0,3.13.6,7.88,7.88,0,0,0,3.06-.6,7.4,7.4,0,0,0,2.49-1.68,8.8,8.8,0,0,0,1.68-2.49,7.3,7.3,0,0,0,.64-3,7.63,7.63,0,0,0-.64-3.06,8.81,8.81,0,0,0-1.68-2.52,7.52,7.52,0,0,0-2.49-1.67,7.71,7.71,0,0,0-3.06-.61,7.94,7.94,0,0,0-3.13.61,7.38,7.38,0,0,0-2.48,1.67,8.18,8.18,0,0,0-1.65,2.46,7.4,7.4,0,0,0-.61,3Zm15.34-17.14h12.23V293.8H222.16V290a12.79,12.79,0,0,1-10.56,4.9,17.32,17.32,0,0,1-6.93-1.37,16.77,16.77,0,0,1-5.51-3.87,17.82,17.82,0,0,1-3.67-5.84,20,20,0,0,1-1.3-7.32,19.38,19.38,0,0,1,1.27-7,18,18,0,0,1,3.57-5.82,17,17,0,0,1,5.44-3.93,16.68,16.68,0,0,1,7-1.44,14.07,14.07,0,0,1,10.7,4.5Z" transform="translate(-0.69 -0.44)"/><path id="Fill-17" class="cls-3" d="M242.66,247.44h12.17v4.37a13.38,13.38,0,0,1,5-4.07,15.91,15.91,0,0,1,6-1,15,15,0,0,1,6.22,1.18,12.41,12.41,0,0,1,4.4,3.32,9.6,9.6,0,0,1,2,3.9A20.81,20.81,0,0,1,279,260v21.9H266.86v-17.4a18.49,18.49,0,0,0-.37-4.13,5,5,0,0,0-1.31-2.52,4.61,4.61,0,0,0-1.81-1.15,6.87,6.87,0,0,0-2.15-.33,6,6,0,0,0-4.74,1.85,7.65,7.65,0,0,0-1.65,5.27v18.41H242.66Z" transform="translate(-0.69 -0.44)"/><path id="Fill-19" class="cls-3" d="M302,279.78a9.57,9.57,0,0,0,2.69,6.74,8.77,8.77,0,0,0,3,2,9.66,9.66,0,0,0,3.74.72,9.41,9.41,0,0,0,3.66-.72,8.77,8.77,0,0,0,3-2,10.17,10.17,0,0,0,2-3,9.26,9.26,0,0,0,0-7.35,10,10,0,0,0-2.05-3,9.38,9.38,0,0,0-3-2,9.06,9.06,0,0,0-3.58-.73,8.63,8.63,0,0,0-3.61.77,10.39,10.39,0,0,0-3,2,9.49,9.49,0,0,0-2.05,2.93,8.67,8.67,0,0,0-.76,3.62Zm32.62-20.4v38.38a42.52,42.52,0,0,1-.4,6.19,27.1,27.1,0,0,1-1.12,4.81,15.14,15.14,0,0,1-3,4.94,20.16,20.16,0,0,1-4.94,4,26.63,26.63,0,0,1-6.55,2.65,33.12,33.12,0,0,1-16.75-.24,24.21,24.21,0,0,1-7-3.34,19.43,19.43,0,0,1-4.94-5,16.39,16.39,0,0,1-2.57-6.23h16.39c1,2.73,3.32,4.1,6.91,4.1q4.57,0,7-2.57a10,10,0,0,0,2.45-7.15V296a25,25,0,0,1-3.09,2.53,17.89,17.89,0,0,1-3,1.64,14.31,14.31,0,0,1-3.21.93,23.5,23.5,0,0,1-3.7.28,21,21,0,0,1-8.11-1.53,18.78,18.78,0,0,1-10.57-10.8,23.13,23.13,0,0,1-1.49-8.47,23.65,23.65,0,0,1,1.61-8.79,22.65,22.65,0,0,1,4.38-7.07,20,20,0,0,1,6.59-4.73,19.8,19.8,0,0,1,8.32-1.73,16,16,0,0,1,12.29,5.46v-4.34Z" transform="translate(-0.69 -0.44)"/><polygon id="Fill-21" class="cls-3" points="349.89 218.68 361.39 218.68 349.02 240.98 341.22 240.98 349.89 218.68"/></g></g></g></g></g></svg>