<svg id="Calque_1" data-name="Calque 1" xmlns="http://www.w3.org/2000/svg" viewBox="0 0 35.19 16.14"><defs><style>.cls-1{fill:#fff;}</style></defs><title>share-friend</title><g id="Page-1"><g id="HP-rouge-1-resultat"><g id="Group"><g id="message"><path id="Shape" class="cls-1" d="M35.24,15.08V2.92a2,2,0,0,0-2-2H15.47a2,2,0,0,0-2,2V4.39H7.75A.6.6,0,0,0,7.16,5a.56.56,0,0,0,.18.41.55.55,0,0,0,.41.17h5.73V8.41H3A.59.59,0,0,0,2.4,9a.55.55,0,0,0,.17.41A.57.57,0,0,0,3,9.58h10.5v5.5a2,2,0,0,0,.59,1.41,2,2,0,0,0,1.4.58h3.72a.59.59,0,0,0,0-1.17H15.48l4.65-4.65A4.67,4.67,0,0,0,21,12.39a4.75,4.75,0,0,0,3.39,1.4,4.8,4.8,0,0,0,4.23-2.54l4.65,4.65H23.87a.59.59,0,1,0,0,1.17h9.38a2,2,0,0,0,2-2Zm-2-13L28.59,6.75a4.67,4.67,0,0,0-.84-1.14,4.75,4.75,0,0,0-3.39-1.4,4.8,4.8,0,0,0-4.23,2.54L15.48,2.1Zm-18.59,13V2.93l5,5a5,5,0,0,0-.11,1,5.19,5.19,0,0,0,.11,1.05Zm9.71-2.44A3.65,3.65,0,0,1,20.73,9a3.64,3.64,0,0,1,3.63-3.63A3.65,3.65,0,0,1,28,9,3.64,3.64,0,0,1,24.36,12.63ZM29.15,9A5.19,5.19,0,0,0,29,8l5-5V15.07l-5-5A5,5,0,0,0,29.15,9Z" transform="translate(-0.04 -0.93)"/><path id="Path" class="cls-1" d="M21.92,16.07a.59.59,0,0,0-.42-.17.58.58,0,0,0-.41.17.59.59,0,0,0-.17.42.58.58,0,0,0,.58.58.59.59,0,0,0,.42-.17.59.59,0,0,0,0-.83Z" transform="translate(-0.04 -0.93)"/><path class="cls-1" d="M11.09,12.38H6a.59.59,0,0,0-.42,1,.57.57,0,0,0,.42.17h5.05a.58.58,0,0,0,.59-.58.59.59,0,0,0-.59-.59Z" transform="translate(-0.04 -0.93)"/><path class="cls-1" d="M1,8.58a.63.63,0,0,0-.41-.17.63.63,0,0,0-.42.17.59.59,0,0,0,0,.83.59.59,0,0,0,.42.17A.58.58,0,0,0,1.21,9,.59.59,0,0,0,1,8.58Z" transform="translate(-0.04 -0.93)"/><path class="cls-1" d="M25.56,9.84a.57.57,0,0,0-.82,0,.31.31,0,0,1-.44,0,.59.59,0,0,0-.83,0,.6.6,0,0,0,0,.83,1.49,1.49,0,0,0,2.09,0A.59.59,0,0,0,25.56,9.84Z" transform="translate(-0.04 -0.93)"/><path class="cls-1" d="M25.45,8.64a.58.58,0,0,0,.41.17.57.57,0,0,0,.41-.17.59.59,0,0,0,.18-.41.62.62,0,0,0-.59-.59.59.59,0,0,0-.41.18.57.57,0,0,0-.17.41A.58.58,0,0,0,25.45,8.64Z" transform="translate(-0.04 -0.93)"/><path class="cls-1" d="M23.47,7.82a.57.57,0,0,0-.83,0,.55.55,0,0,0-.17.41.58.58,0,0,0,.58.58.59.59,0,0,0,.42-.17.58.58,0,0,0,.17-.41A.57.57,0,0,0,23.47,7.82Z" transform="translate(-0.04 -0.93)"/></g></g></g></g></svg>